<svg xmlns="http://www.w3.org/2000/svg" xmlns:xlink="http://www.w3.org/1999/xlink" width="2880" zoomAndPan="magnify" viewBox="0 0 2160 863.999991" height="1152" preserveAspectRatio="xMidYMid meet" version="1.0"><defs><g/><clipPath id="9815ad6c51"><path d="M 86.398438 103.90625 L 2073.601562 103.90625 L 2073.601562 542.382812 L 86.398438 542.382812 Z M 86.398438 103.90625 " clip-rule="nonzero"/></clipPath></defs><rect x="-216" width="2592" fill="#ffffff" y="-86.399999" height="1036.79999" fill-opacity="1"/><rect x="-216" width="2592" fill="#ffffff" y="-86.399999" height="1036.79999" fill-opacity="1"/><rect x="-216" width="2592" fill="#000000" y="-86.399999" height="1036.79999" fill-opacity="1"/><g fill="#ffffff" fill-opacity="1"><g transform="translate(96.820568, 760.452341)"><g><path d="M 2.546875 -88.375 C 2.941406 -90.332031 3.203125 -91.929688 3.328125 -93.171875 C 3.460938 -94.410156 3.003906 -95.75 1.953125 -97.1875 C 2.484375 -99.28125 2.910156 -100.910156 3.234375 -102.078125 C 3.554688 -103.253906 3.585938 -104.890625 3.328125 -106.984375 C 4.503906 -110.378906 6.300781 -113.25 8.71875 -115.59375 C 11.132812 -117.945312 13.78125 -119.941406 16.65625 -121.578125 C 19.53125 -123.210938 22.535156 -124.582031 25.671875 -125.6875 C 28.804688 -126.800781 31.742188 -127.75 34.484375 -128.53125 C 34.484375 -129.050781 34.222656 -129.3125 33.703125 -129.3125 C 33.179688 -129.3125 33.050781 -129.640625 33.3125 -130.296875 C 40.363281 -131.609375 47.445312 -133.503906 54.5625 -135.984375 C 61.6875 -138.460938 68.96875 -140.679688 76.40625 -142.640625 C 83.851562 -144.597656 91.492188 -145.804688 99.328125 -146.265625 C 107.171875 -146.722656 115.40625 -145.710938 124.03125 -143.234375 C 124.550781 -141.660156 125.269531 -140.15625 126.1875 -138.71875 C 127.101562 -137.28125 128.050781 -135.875 129.03125 -134.5 C 130.007812 -133.132812 130.890625 -131.796875 131.671875 -130.484375 C 132.453125 -129.179688 132.910156 -127.8125 133.046875 -126.375 C 134.609375 -124.9375 135.878906 -123.398438 136.859375 -121.765625 C 137.835938 -120.140625 138.003906 -117.957031 137.359375 -115.21875 C 135.921875 -114.164062 134.414062 -113.117188 132.84375 -112.078125 C 131.28125 -111.035156 129.648438 -110.054688 127.953125 -109.140625 C 122.066406 -110.578125 116.1875 -111.097656 110.3125 -110.703125 C 104.4375 -110.316406 99.144531 -109.859375 94.4375 -109.328125 C 93 -110.898438 91.300781 -111.648438 89.34375 -111.578125 C 87.382812 -111.515625 85.328125 -111.1875 83.171875 -110.59375 C 81.015625 -110.007812 78.890625 -109.425781 76.796875 -108.84375 C 74.710938 -108.257812 72.753906 -108.097656 70.921875 -108.359375 C 69.492188 -107.046875 67.601562 -106.160156 65.25 -105.703125 C 62.894531 -105.242188 60.410156 -104.882812 57.796875 -104.625 C 57.671875 -103.976562 57.800781 -103.523438 58.1875 -103.265625 C 58.582031 -103.003906 58.648438 -102.476562 58.390625 -101.6875 C 59.304688 -100.507812 60.546875 -99.691406 62.109375 -99.234375 C 63.679688 -98.785156 65.28125 -98.363281 66.90625 -97.96875 C 68.539062 -97.570312 70.007812 -97.015625 71.3125 -96.296875 C 72.625 -95.578125 73.476562 -94.4375 73.875 -92.875 C 76.21875 -92.738281 78.238281 -92.113281 79.9375 -91 C 81.632812 -89.894531 83.070312 -88.554688 84.25 -86.984375 C 85.425781 -85.421875 86.273438 -83.757812 86.796875 -82 C 87.316406 -80.238281 87.515625 -78.640625 87.390625 -77.203125 C 87.910156 -75.890625 88.460938 -75.363281 89.046875 -75.625 C 89.640625 -75.894531 90.328125 -75.570312 91.109375 -74.65625 C 91.628906 -72.695312 92.835938 -70.640625 94.734375 -68.484375 C 96.628906 -66.328125 98.097656 -64.007812 99.140625 -61.53125 C 99.398438 -57.601562 99.628906 -54.070312 99.828125 -50.9375 C 100.023438 -47.800781 99.472656 -44.734375 98.171875 -41.734375 C 95.941406 -35.984375 92.738281 -30.820312 88.5625 -26.25 C 84.382812 -21.675781 79.648438 -17.660156 74.359375 -14.203125 C 69.066406 -10.742188 63.476562 -7.738281 57.59375 -5.1875 C 51.71875 -2.644531 45.910156 -0.523438 40.171875 1.171875 C 39.648438 1.046875 39.03125 1.046875 38.3125 1.171875 C 37.59375 1.304688 37.425781 0.914062 37.8125 0 C 36.632812 1.039062 35.296875 1.691406 33.796875 1.953125 C 32.296875 2.210938 30.660156 2.3125 28.890625 2.25 C 27.128906 2.1875 25.367188 2.085938 23.609375 1.953125 C 21.847656 1.828125 20.117188 1.894531 18.421875 2.15625 C 17.367188 1.113281 16.414062 0.0703125 15.5625 -0.96875 C 14.71875 -2.019531 14.035156 -3.265625 13.515625 -4.703125 C 12.867188 -4.835938 12.578125 -5.257812 12.640625 -5.96875 C 12.703125 -6.6875 12.40625 -7.046875 11.75 -7.046875 C 11.75 -7.578125 11.8125 -7.972656 11.9375 -8.234375 C 12.070312 -8.492188 12.207031 -8.753906 12.34375 -9.015625 C 12.863281 -9.398438 13.09375 -9.691406 13.03125 -9.890625 C 12.96875 -10.085938 12.769531 -10.285156 12.4375 -10.484375 C 12.113281 -10.679688 11.785156 -10.910156 11.453125 -11.171875 C 11.128906 -11.429688 11.035156 -11.753906 11.171875 -12.140625 C 11.816406 -13.316406 12.039062 -14.722656 11.84375 -16.359375 C 11.65625 -17.992188 11.492188 -19.660156 11.359375 -21.359375 C 11.234375 -23.054688 11.363281 -24.65625 11.75 -26.15625 C 12.144531 -27.65625 13.257812 -28.929688 15.09375 -29.984375 C 20.445312 -29.453125 25.503906 -29.707031 30.265625 -30.75 C 35.035156 -31.800781 39.539062 -33.238281 43.78125 -35.0625 C 48.03125 -36.894531 52.082031 -38.890625 55.9375 -41.046875 C 59.789062 -43.203125 63.546875 -45.195312 67.203125 -47.03125 C 67.597656 -48.332031 68.21875 -49.441406 69.0625 -50.359375 C 69.914062 -51.273438 70.796875 -52.15625 71.703125 -53 C 72.617188 -53.851562 73.46875 -54.769531 74.25 -55.75 C 75.039062 -56.726562 75.632812 -57.9375 76.03125 -59.375 C 76.15625 -59.894531 76.148438 -60.285156 76.015625 -60.546875 C 75.890625 -60.804688 75.695312 -61.035156 75.4375 -61.234375 C 75.175781 -61.429688 74.914062 -61.660156 74.65625 -61.921875 C 74.394531 -62.179688 74.265625 -62.570312 74.265625 -63.09375 C 73.867188 -63.21875 73.503906 -63.347656 73.171875 -63.484375 C 72.847656 -63.617188 72.554688 -63.6875 72.296875 -63.6875 C 68.898438 -65.382812 65.304688 -66.816406 61.515625 -67.984375 C 57.734375 -69.160156 54.535156 -70.46875 51.921875 -71.90625 C 50.359375 -70.863281 48.789062 -70.601562 47.21875 -71.125 C 45.65625 -71.644531 43.757812 -72.164062 41.53125 -72.6875 C 36.050781 -72.945312 30.859375 -73.46875 25.953125 -74.25 C 21.054688 -75.039062 16.320312 -76.414062 11.75 -78.375 C 11.488281 -79.15625 11.160156 -79.835938 10.765625 -80.421875 C 10.378906 -81.015625 9.46875 -81.179688 8.03125 -80.921875 C 7.113281 -82.222656 6.164062 -83.429688 5.1875 -84.546875 C 4.207031 -85.660156 3.328125 -86.9375 2.546875 -88.375 Z M 2.546875 -88.375 "/></g></g><g transform="translate(212.42787, 760.452341)"><g><path d="M 8.8125 -55.25 C 8.945312 -55.769531 9.242188 -56 9.703125 -55.9375 C 10.160156 -55.875 10.582031 -55.90625 10.96875 -56.03125 C 9.925781 -57.082031 9.273438 -58.488281 9.015625 -60.25 C 8.753906 -62.007812 8.097656 -63.476562 7.046875 -64.65625 C 7.316406 -65.3125 7.546875 -65.960938 7.734375 -66.609375 C 7.929688 -67.265625 8.488281 -67.53125 9.40625 -67.40625 C 9.007812 -70.28125 9.070312 -72.957031 9.59375 -75.4375 C 10.125 -77.914062 10.941406 -80.265625 12.046875 -82.484375 C 13.160156 -84.710938 14.46875 -86.898438 15.96875 -89.046875 C 17.46875 -91.203125 18.9375 -93.394531 20.375 -95.625 C 21.550781 -95.882812 22.269531 -95.785156 22.53125 -95.328125 C 22.789062 -94.867188 23.25 -94.96875 23.90625 -95.625 C 26 -97.050781 27.4375 -98.644531 28.21875 -100.40625 C 29 -102.175781 29.390625 -104.109375 29.390625 -106.203125 C 30.566406 -109.597656 31.90625 -112.957031 33.40625 -116.28125 C 34.90625 -119.613281 36.632812 -122.71875 38.59375 -125.59375 C 40.550781 -128.46875 42.640625 -130.984375 44.859375 -133.140625 C 47.085938 -135.296875 49.507812 -136.960938 52.125 -138.140625 C 53.945312 -139.703125 56.257812 -141.132812 59.0625 -142.4375 C 61.875 -143.75 64.878906 -144.765625 68.078125 -145.484375 C 71.285156 -146.203125 74.585938 -146.59375 77.984375 -146.65625 C 81.378906 -146.71875 84.515625 -146.359375 87.390625 -145.578125 C 88.046875 -145.316406 88.4375 -145.476562 88.5625 -146.0625 C 88.695312 -146.65625 89.023438 -146.953125 89.546875 -146.953125 C 96.078125 -146.171875 101.921875 -144.863281 107.078125 -143.03125 C 112.234375 -141.207031 116.644531 -138.660156 120.3125 -135.390625 C 122.789062 -131.472656 125.140625 -127.257812 127.359375 -122.75 C 129.578125 -118.25 131.304688 -113.546875 132.546875 -108.640625 C 133.785156 -103.742188 134.335938 -98.679688 134.203125 -93.453125 C 134.078125 -88.234375 132.972656 -83.007812 130.890625 -77.78125 C 126.316406 -72.039062 120.765625 -67.4375 114.234375 -63.96875 C 107.703125 -60.507812 100.679688 -57.632812 93.171875 -55.34375 C 85.660156 -53.0625 77.882812 -51.203125 69.84375 -49.765625 C 61.8125 -48.328125 54.007812 -46.757812 46.4375 -45.0625 C 46.570312 -41.539062 46.570312 -37.785156 46.4375 -33.796875 C 46.300781 -29.816406 45.875 -25.832031 45.15625 -21.84375 C 44.445312 -17.863281 43.40625 -13.976562 42.03125 -10.1875 C 40.65625 -6.394531 38.789062 -2.867188 36.4375 0.390625 C 33.832031 0.265625 31.125 0.523438 28.3125 1.171875 C 25.5 1.828125 22.984375 2.484375 20.765625 3.140625 C 19.722656 2.484375 18.710938 1.859375 17.734375 1.265625 C 16.753906 0.679688 15.546875 0.328125 14.109375 0.203125 C 14.503906 -1.367188 14.144531 -3.003906 13.03125 -4.703125 C 11.914062 -6.398438 10.800781 -8.0625 9.6875 -9.6875 C 8.582031 -11.320312 7.863281 -12.957031 7.53125 -14.59375 C 7.207031 -16.226562 7.960938 -17.695312 9.796875 -19 C 8.753906 -19.914062 8.234375 -21.351562 8.234375 -23.3125 C 8.753906 -22.789062 9.40625 -22.53125 10.1875 -22.53125 C 9.925781 -24.882812 10.21875 -27.691406 11.0625 -30.953125 C 11.914062 -34.222656 12.632812 -37.457031 13.21875 -40.65625 C 13.8125 -43.851562 13.910156 -46.789062 13.515625 -49.46875 C 13.128906 -52.144531 11.5625 -54.070312 8.8125 -55.25 Z M 59.765625 -101.109375 C 59.242188 -99.671875 58.816406 -98.394531 58.484375 -97.28125 C 58.160156 -96.175781 57.800781 -95.164062 57.40625 -94.25 C 57.019531 -93.332031 56.597656 -92.414062 56.140625 -91.5 C 55.679688 -90.582031 55.191406 -89.539062 54.671875 -88.375 C 54.929688 -87.582031 55.453125 -86.988281 56.234375 -86.59375 C 57.015625 -86.207031 57.535156 -85.625 57.796875 -84.84375 C 59.628906 -85.757812 61.457031 -86.441406 63.28125 -86.890625 C 65.113281 -87.347656 66.941406 -87.707031 68.765625 -87.96875 C 70.597656 -88.238281 72.425781 -88.566406 74.25 -88.953125 C 76.082031 -89.347656 77.976562 -90.003906 79.9375 -90.921875 C 81.894531 -91.828125 83.953125 -92.570312 86.109375 -93.15625 C 88.265625 -93.75 90.390625 -94.375 92.484375 -95.03125 C 94.578125 -95.6875 96.601562 -96.4375 98.5625 -97.28125 C 100.519531 -98.132812 102.21875 -99.28125 103.65625 -100.71875 C 101.820312 -102.414062 99.078125 -103.914062 95.421875 -105.21875 C 91.765625 -106.519531 87.8125 -107.332031 83.5625 -107.65625 C 79.320312 -107.988281 75.078125 -107.695312 70.828125 -106.78125 C 66.585938 -105.875 62.898438 -103.984375 59.765625 -101.109375 Z M 59.765625 -101.109375 "/></g></g><g transform="translate(340.77157, 760.452341)"><g><path d="M 47.21875 0.78125 C 41.46875 1.5625 36.242188 1.300781 31.546875 0 C 26.847656 -1.300781 22.632812 -3.320312 18.90625 -6.0625 C 15.1875 -8.8125 11.988281 -12.078125 9.3125 -15.859375 C 6.632812 -19.648438 4.445312 -23.703125 2.75 -28.015625 C 1.570312 -36.898438 1.894531 -44.96875 3.71875 -52.21875 C 5.550781 -59.46875 8.226562 -66.160156 11.75 -72.296875 C 15.28125 -78.441406 19.296875 -84.191406 23.796875 -89.546875 C 28.304688 -94.898438 32.65625 -100.054688 36.84375 -105.015625 C 37.75 -104.628906 38.492188 -104.628906 39.078125 -105.015625 C 39.671875 -105.410156 40.195312 -105.929688 40.65625 -106.578125 C 41.113281 -107.234375 41.632812 -107.890625 42.21875 -108.546875 C 42.8125 -109.203125 43.5 -109.660156 44.28125 -109.921875 C 44.800781 -111.097656 45.484375 -112.078125 46.328125 -112.859375 C 47.179688 -113.640625 48.097656 -114.390625 49.078125 -115.109375 C 50.054688 -115.828125 50.96875 -116.578125 51.8125 -117.359375 C 52.664062 -118.148438 53.421875 -119.132812 54.078125 -120.3125 C 55.378906 -120.570312 56.519531 -121.023438 57.5 -121.671875 C 58.488281 -122.328125 59.40625 -123.046875 60.25 -123.828125 C 61.101562 -124.617188 61.984375 -125.335938 62.890625 -125.984375 C 63.804688 -126.640625 64.921875 -127.164062 66.234375 -127.5625 L 66.234375 -130.109375 C 69.097656 -131.410156 71.179688 -132.84375 72.484375 -134.40625 C 73.796875 -135.976562 75.367188 -138.003906 77.203125 -140.484375 C 78.640625 -140.617188 79.78125 -140.6875 80.625 -140.6875 C 81.476562 -140.6875 82.816406 -140.816406 84.640625 -141.078125 C 85.816406 -143.296875 86.925781 -144.925781 87.96875 -145.96875 C 89.019531 -147.019531 90.523438 -148.195312 92.484375 -149.5 C 94.441406 -148.457031 96.53125 -147.835938 98.75 -147.640625 C 100.96875 -147.441406 102.992188 -146.429688 104.828125 -144.609375 C 104.953125 -143.035156 105.40625 -141.820312 106.1875 -140.96875 C 106.976562 -140.125 107.832031 -139.34375 108.75 -138.625 C 109.664062 -137.90625 110.578125 -137.15625 111.484375 -136.375 C 112.398438 -135.59375 112.988281 -134.484375 113.25 -133.046875 C 113.90625 -133.046875 114.328125 -133.175781 114.515625 -133.4375 C 114.710938 -133.695312 115.140625 -133.757812 115.796875 -133.625 C 116.054688 -132.582031 116.316406 -131.734375 116.578125 -131.078125 C 116.835938 -130.429688 117.128906 -129.84375 117.453125 -129.3125 C 117.785156 -128.789062 118.113281 -128.203125 118.4375 -127.546875 C 118.769531 -126.898438 119.066406 -126.117188 119.328125 -125.203125 C 118.671875 -123.640625 118.082031 -121.972656 117.5625 -120.203125 C 117.039062 -118.441406 115.992188 -117.234375 114.421875 -116.578125 C 114.421875 -115.535156 114.8125 -114.976562 115.59375 -114.90625 C 116.382812 -114.84375 116.84375 -114.359375 116.96875 -113.453125 C 117.101562 -112.273438 116.910156 -111.296875 116.390625 -110.515625 C 120.046875 -104.367188 123.375 -97.929688 126.375 -91.203125 C 129.382812 -84.484375 132.78125 -78.050781 136.5625 -71.90625 C 136.300781 -70.082031 136.398438 -68.285156 136.859375 -66.515625 C 137.316406 -64.753906 137.90625 -63.023438 138.625 -61.328125 C 139.34375 -59.628906 140.023438 -57.929688 140.671875 -56.234375 C 141.328125 -54.535156 141.789062 -52.835938 142.0625 -51.140625 C 142.320312 -48.921875 142.316406 -46.535156 142.046875 -43.984375 C 141.785156 -41.441406 141.265625 -38.992188 140.484375 -36.640625 C 139.703125 -34.285156 138.65625 -32.097656 137.34375 -30.078125 C 136.039062 -28.054688 134.539062 -26.519531 132.84375 -25.46875 C 130.757812 -22.851562 128.148438 -20.726562 125.015625 -19.09375 C 121.878906 -17.46875 119.003906 -15.546875 116.390625 -13.328125 C 114.554688 -12.273438 112.59375 -11.519531 110.5 -11.0625 C 108.414062 -10.613281 106.265625 -10.125 104.046875 -9.59375 C 102.347656 -8.550781 100.320312 -7.539062 97.96875 -6.5625 C 95.613281 -5.582031 93.195312 -4.703125 90.71875 -3.921875 C 88.238281 -3.140625 85.753906 -2.519531 83.265625 -2.0625 C 80.785156 -1.601562 78.566406 -1.503906 76.609375 -1.765625 C 71.910156 -0.0664062 67.335938 1.109375 62.890625 1.765625 C 58.453125 2.421875 53.226562 2.09375 47.21875 0.78125 Z M 49.765625 -70.53125 C 48.460938 -67.53125 46.925781 -64.820312 45.15625 -62.40625 C 43.394531 -59.988281 41.664062 -57.535156 39.96875 -55.046875 C 38.269531 -52.566406 36.800781 -49.921875 35.5625 -47.109375 C 34.320312 -44.304688 33.632812 -41.015625 33.5 -37.234375 C 36.113281 -35.003906 39.21875 -33.660156 42.8125 -33.203125 C 46.40625 -32.753906 50.09375 -32.691406 53.875 -33.015625 C 57.664062 -33.335938 61.453125 -33.828125 65.234375 -34.484375 C 69.023438 -35.140625 72.425781 -35.46875 75.4375 -35.46875 C 75.4375 -36.644531 75.957031 -37.234375 77 -37.234375 C 82.488281 -37.753906 87.582031 -39.285156 92.28125 -41.828125 C 96.988281 -44.378906 101.890625 -46.960938 106.984375 -49.578125 C 107.640625 -51.140625 108.488281 -52.507812 109.53125 -53.6875 C 110.570312 -54.863281 111.160156 -56.5625 111.296875 -58.78125 C 110.640625 -59.957031 110.210938 -60.9375 110.015625 -61.71875 C 109.816406 -62.5 109.71875 -63.675781 109.71875 -65.25 C 106.320312 -69.945312 103.382812 -75.070312 100.90625 -80.625 C 98.425781 -86.175781 95.550781 -91.4375 92.28125 -96.40625 C 92.019531 -95.75 91.5 -95.09375 90.71875 -94.4375 C 89.9375 -93.789062 89.085938 -93.921875 88.171875 -94.828125 C 87.773438 -93.523438 87.1875 -92.644531 86.40625 -92.1875 C 85.625 -91.726562 84.742188 -91.5 83.765625 -91.5 C 82.785156 -91.5 81.804688 -91.691406 80.828125 -92.078125 C 79.847656 -92.472656 78.960938 -93 78.171875 -93.65625 C 73.609375 -90 69.070312 -86.472656 64.5625 -83.078125 C 60.050781 -79.679688 55.96875 -75.695312 52.3125 -71.125 C 51.65625 -70.726562 51.257812 -70.59375 51.125 -70.71875 C 51 -70.851562 50.546875 -70.789062 49.765625 -70.53125 Z M 49.765625 -70.53125 "/></g></g><g transform="translate(490.081339, 760.452341)"><g><path d="M 5.484375 -16.84375 C 4.828125 -16.71875 4.238281 -17.207031 3.71875 -18.3125 C 3.195312 -19.425781 2.609375 -20.503906 1.953125 -21.546875 L 4.109375 -21.546875 C 3.203125 -24.421875 2.972656 -27.066406 3.421875 -29.484375 C 3.878906 -31.898438 4.4375 -34.25 5.09375 -36.53125 C 5.75 -38.820312 6.304688 -41.046875 6.765625 -43.203125 C 7.222656 -45.359375 6.992188 -47.613281 6.078125 -49.96875 C 6.722656 -49.570312 7.207031 -49.734375 7.53125 -50.453125 C 7.863281 -51.171875 8.128906 -52.082031 8.328125 -53.1875 C 8.523438 -54.300781 8.585938 -55.476562 8.515625 -56.71875 C 8.453125 -57.957031 8.359375 -58.972656 8.234375 -59.765625 C 9.929688 -63.804688 11.269531 -67.984375 12.25 -72.296875 C 13.226562 -76.609375 14.109375 -80.882812 14.890625 -85.125 C 15.671875 -89.375 16.550781 -93.488281 17.53125 -97.46875 C 18.507812 -101.457031 19.785156 -105.21875 21.359375 -108.75 C 23.179688 -109.007812 25.101562 -108.78125 27.125 -108.0625 C 29.15625 -107.34375 30.5 -106.460938 31.15625 -105.421875 C 35.207031 -108.554688 38.800781 -112.34375 41.9375 -116.78125 C 45.070312 -121.21875 48.238281 -125.554688 51.4375 -129.796875 C 54.632812 -134.046875 58.253906 -137.800781 62.296875 -141.0625 C 66.347656 -144.332031 71.378906 -146.296875 77.390625 -146.953125 C 80.523438 -144.734375 84.050781 -142.347656 87.96875 -139.796875 C 91.894531 -137.253906 95.097656 -134.085938 97.578125 -130.296875 C 98.617188 -129.640625 99.628906 -128.953125 100.609375 -128.234375 C 101.585938 -127.515625 102.601562 -126.832031 103.65625 -126.1875 L 103.65625 -123.25 C 105.476562 -121.550781 107.007812 -119.554688 108.25 -117.265625 C 109.5 -114.984375 110.613281 -112.566406 111.59375 -110.015625 C 112.570312 -107.472656 113.515625 -104.894531 114.421875 -102.28125 C 115.335938 -99.664062 116.382812 -97.25 117.5625 -95.03125 C 117.300781 -94.25 117.203125 -93.5625 117.265625 -92.96875 C 117.328125 -92.382812 117.457031 -91.796875 117.65625 -91.203125 C 117.851562 -90.617188 118.015625 -89.96875 118.140625 -89.25 C 118.273438 -88.53125 118.34375 -87.648438 118.34375 -86.609375 C 117.820312 -79.679688 115.566406 -74.09375 111.578125 -69.84375 C 107.597656 -65.601562 102.765625 -62.144531 97.078125 -59.46875 C 91.398438 -56.789062 85.359375 -54.503906 78.953125 -52.609375 C 72.554688 -50.710938 66.75 -48.65625 61.53125 -46.4375 C 61.53125 -45.914062 61.820312 -45.65625 62.40625 -45.65625 C 62.988281 -45.65625 63.148438 -45.265625 62.890625 -44.484375 C 66.816406 -42.128906 69.851562 -40.234375 72 -38.796875 C 74.15625 -37.359375 76.179688 -36.148438 78.078125 -35.171875 C 79.972656 -34.191406 82.0625 -33.375 84.34375 -32.71875 C 86.632812 -32.0625 89.804688 -31.28125 93.859375 -30.375 C 97.898438 -29.457031 101.0625 -28.703125 103.34375 -28.109375 C 105.632812 -27.523438 107.691406 -27.066406 109.515625 -26.734375 C 111.347656 -26.410156 113.3125 -26.117188 115.40625 -25.859375 C 117.5 -25.597656 120.304688 -25.273438 123.828125 -24.890625 C 125.265625 -23.453125 126.441406 -21.75 127.359375 -19.78125 C 128.273438 -17.820312 128.925781 -15.863281 129.3125 -13.90625 C 129.707031 -11.945312 129.804688 -10.085938 129.609375 -8.328125 C 129.410156 -6.566406 128.859375 -5.160156 127.953125 -4.109375 C 128.078125 -3.585938 128.429688 -3.359375 129.015625 -3.421875 C 129.609375 -3.492188 130.234375 -3.460938 130.890625 -3.328125 C 129.972656 -2.671875 129.1875 -1.882812 128.53125 -0.96875 C 127.882812 -0.0625 127.234375 0.847656 126.578125 1.765625 C 125.921875 2.679688 125.164062 3.53125 124.3125 4.3125 C 123.46875 5.09375 122.394531 5.550781 121.09375 5.6875 C 116.382812 7.507812 110.375 7.570312 103.0625 5.875 C 95.75 4.175781 86.410156 1.171875 75.046875 -3.140625 C 69.429688 -5.222656 64.859375 -7.113281 61.328125 -8.8125 C 57.796875 -10.507812 54.722656 -12.175781 52.109375 -13.8125 C 49.503906 -15.445312 47.085938 -17.207031 44.859375 -19.09375 C 42.640625 -20.988281 40.097656 -23.242188 37.234375 -25.859375 C 36.835938 -25.734375 36.601562 -25.472656 36.53125 -25.078125 C 36.46875 -24.691406 36.242188 -24.429688 35.859375 -24.296875 C 35.203125 -19.066406 34.1875 -14.816406 32.8125 -11.546875 C 31.445312 -8.285156 29.457031 -4.957031 26.84375 -1.5625 C 24.75 -1.957031 23.34375 -1.757812 22.625 -0.96875 C 21.90625 -0.1875 21.023438 0.523438 19.984375 1.171875 C 18.679688 1.429688 17.703125 1.398438 17.046875 1.078125 C 16.390625 0.753906 15.800781 0.394531 15.28125 0 C 14.757812 -0.394531 14.171875 -0.785156 13.515625 -1.171875 C 12.867188 -1.566406 11.828125 -1.695312 10.390625 -1.5625 C 9.992188 -2.738281 9.597656 -3.878906 9.203125 -4.984375 C 8.816406 -6.097656 7.773438 -6.59375 6.078125 -6.46875 C 6.460938 -7.644531 6.585938 -8.65625 6.453125 -9.5 C 6.328125 -10.351562 6.132812 -11.140625 5.875 -11.859375 C 5.613281 -12.578125 5.382812 -13.328125 5.1875 -14.109375 C 5 -14.890625 5.097656 -15.800781 5.484375 -16.84375 Z M 70.921875 -106.390625 C 69.222656 -103.910156 67.328125 -101.65625 65.234375 -99.625 C 63.148438 -97.601562 61.09375 -95.515625 59.0625 -93.359375 C 57.039062 -91.203125 55.242188 -88.847656 53.671875 -86.296875 C 52.109375 -83.753906 51.003906 -80.722656 50.359375 -77.203125 C 55.835938 -77.847656 61.582031 -79.378906 67.59375 -81.796875 C 73.601562 -84.210938 79.285156 -86.535156 84.640625 -88.765625 C 83.992188 -93.597656 82.296875 -97.484375 79.546875 -100.421875 C 76.804688 -103.359375 73.929688 -105.347656 70.921875 -106.390625 Z M 70.921875 -106.390625 "/></g></g><g transform="translate(619.796651, 760.452341)"><g><path d="M 4.3125 -110.515625 C 4.175781 -111.554688 3.945312 -112.5 3.625 -113.34375 C 3.300781 -114.195312 2.941406 -115.144531 2.546875 -116.1875 C 1.890625 -117.757812 1.300781 -119.457031 0.78125 -121.28125 C 0.257812 -123.113281 0 -125.269531 0 -127.75 C 0.257812 -129.0625 0.582031 -130.007812 0.96875 -130.59375 C 1.363281 -131.175781 1.757812 -131.664062 2.15625 -132.0625 L 2.9375 -135.59375 L 5.875 -135.59375 C 6.925781 -135.457031 8.003906 -135.390625 9.109375 -135.390625 C 10.222656 -135.390625 11.300781 -135.390625 12.34375 -135.390625 C 17.3125 -135.390625 22.40625 -135.582031 27.625 -135.96875 C 32.851562 -136.363281 38.207031 -136.828125 43.6875 -137.359375 C 49.695312 -138.140625 56.164062 -138.722656 63.09375 -139.109375 C 63.75 -140.546875 64.171875 -141.460938 64.359375 -141.859375 C 64.554688 -142.253906 64.785156 -142.710938 65.046875 -143.234375 L 67.203125 -144.40625 C 70.210938 -144.539062 72.300781 -144.179688 73.46875 -143.328125 C 74.644531 -142.484375 75.5625 -141.664062 76.21875 -140.875 C 79.613281 -141.132812 83.070312 -141.492188 86.59375 -141.953125 C 90.125 -142.410156 93.785156 -142.898438 97.578125 -143.421875 C 102.804688 -144.078125 108.097656 -144.726562 113.453125 -145.375 C 118.804688 -146.03125 124.03125 -146.359375 129.125 -146.359375 C 131.34375 -146.359375 133.429688 -146.289062 135.390625 -146.15625 C 137.347656 -146.03125 139.242188 -145.835938 141.078125 -145.578125 L 143.421875 -143.8125 C 143.941406 -142.90625 144.59375 -142.054688 145.375 -141.265625 C 146.164062 -140.484375 147.082031 -139.703125 148.125 -138.921875 C 150.082031 -137.347656 152.007812 -135.382812 153.90625 -133.03125 C 155.800781 -130.6875 156.488281 -127.226562 155.96875 -122.65625 L 154.984375 -120.703125 C 154.460938 -120.179688 153.8125 -119.65625 153.03125 -119.125 L 151.0625 -116.578125 L 148.90625 -116.578125 C 147.601562 -116.578125 146.625 -116.476562 145.96875 -116.28125 C 145.320312 -116.09375 144.539062 -115.800781 143.625 -115.40625 C 143.101562 -115.144531 142.515625 -114.914062 141.859375 -114.71875 C 141.203125 -114.519531 140.484375 -114.289062 139.703125 -114.03125 C 138.265625 -114.164062 137.15625 -114.234375 136.375 -114.234375 C 135.59375 -114.234375 134.675781 -114.234375 133.625 -114.234375 C 129.707031 -114.234375 125.460938 -113.972656 120.890625 -113.453125 C 116.316406 -112.929688 111.875 -112.34375 107.5625 -111.6875 C 104.4375 -111.289062 101.4375 -110.929688 98.5625 -110.609375 C 95.6875 -110.285156 93.070312 -109.988281 90.71875 -109.71875 C 89.414062 -106.320312 88.238281 -103.316406 87.1875 -100.703125 C 86.144531 -98.097656 85.035156 -95.488281 83.859375 -92.875 C 82.679688 -90.257812 81.570312 -87.613281 80.53125 -84.9375 C 79.488281 -82.257812 78.507812 -79.289062 77.59375 -76.03125 C 76.019531 -73.675781 74.710938 -71.421875 73.671875 -69.265625 C 72.628906 -67.109375 71.78125 -64.660156 71.125 -61.921875 C 69.164062 -59.691406 67.757812 -57.269531 66.90625 -54.65625 C 66.0625 -52.050781 65.3125 -49.832031 64.65625 -48 L 63.875 -45.0625 C 62.957031 -44.144531 62.398438 -43.425781 62.203125 -42.90625 C 62.015625 -42.382812 61.65625 -41.796875 61.125 -41.140625 C 60.738281 -39.441406 60.21875 -37.8125 59.5625 -36.25 C 59.300781 -35.59375 59.039062 -34.90625 58.78125 -34.1875 C 58.519531 -33.46875 58.453125 -32.914062 58.578125 -32.53125 C 58.316406 -31.09375 57.925781 -29.976562 57.40625 -29.1875 C 57.40625 -28.40625 57.335938 -27.625 57.203125 -26.84375 C 57.078125 -26.0625 56.953125 -25.28125 56.828125 -24.5 C 56.566406 -23.582031 56.367188 -22.765625 56.234375 -22.046875 C 56.097656 -21.328125 56.164062 -20.640625 56.4375 -19.984375 C 56.820312 -19.460938 57.207031 -18.941406 57.59375 -18.421875 C 57.988281 -17.898438 58.316406 -17.242188 58.578125 -16.453125 C 58.847656 -16.191406 59.175781 -15.992188 59.5625 -15.859375 C 59.957031 -15.734375 60.285156 -15.539062 60.546875 -15.28125 C 61.585938 -14.363281 62.566406 -13.84375 63.484375 -13.71875 L 65.4375 -11.359375 C 66.226562 -6.660156 65.507812 -3.003906 63.28125 -0.390625 C 60.9375 2.609375 57.019531 4.109375 51.53125 4.109375 L 48.78125 3.921875 C 47.875 3.003906 47.351562 2.414062 47.21875 2.15625 C 46.039062 1.632812 45.0625 1.207031 44.28125 0.875 C 43.5 0.550781 42.78125 -0.0664062 42.125 -0.984375 C 41.863281 -1.242188 41.535156 -1.40625 41.140625 -1.46875 C 40.753906 -1.53125 40.429688 -1.691406 40.171875 -1.953125 C 38.859375 -2.347656 37.8125 -2.804688 37.03125 -3.328125 L 34.875 -4.5 C 35.007812 -5.8125 35.078125 -6.726562 35.078125 -7.25 C 34.023438 -8.6875 33.203125 -10.253906 32.609375 -11.953125 C 32.023438 -13.648438 31.539062 -15.414062 31.15625 -17.25 C 30.757812 -18.675781 30.398438 -19.976562 30.078125 -21.15625 C 29.753906 -22.332031 29.265625 -23.378906 28.609375 -24.296875 C 28.347656 -33.441406 29.195312 -41.113281 31.15625 -47.3125 C 33.113281 -53.519531 35.269531 -59.5625 37.625 -65.4375 C 38.925781 -68.570312 40.164062 -71.769531 41.34375 -75.03125 C 42.519531 -78.300781 43.566406 -81.632812 44.484375 -85.03125 L 46.640625 -87.1875 C 47.546875 -87.976562 48.128906 -88.4375 48.390625 -88.5625 C 48.390625 -90.257812 48.71875 -91.925781 49.375 -93.5625 C 50.03125 -95.195312 50.75 -96.863281 51.53125 -98.5625 C 52.050781 -99.601562 52.539062 -100.644531 53 -101.6875 C 53.457031 -102.738281 53.753906 -103.65625 53.890625 -104.4375 C 52.972656 -104.4375 52.15625 -104.398438 51.4375 -104.328125 C 50.71875 -104.265625 49.96875 -104.171875 49.1875 -104.046875 C 47.488281 -103.648438 45.851562 -103.453125 44.28125 -103.453125 C 43.101562 -103.453125 42.253906 -103.519531 41.734375 -103.65625 C 40.691406 -103.132812 39.710938 -102.835938 38.796875 -102.765625 C 37.878906 -102.703125 36.960938 -102.671875 36.046875 -102.671875 L 31.34375 -102.671875 C 29.78125 -102.671875 28.539062 -102.472656 27.625 -102.078125 C 25.800781 -102.078125 24.625 -102.078125 24.09375 -102.078125 C 23.570312 -102.078125 22.988281 -102.078125 22.34375 -102.078125 L 17.640625 -102.078125 C 16.585938 -102.078125 15.40625 -102.175781 14.09375 -102.375 C 12.789062 -102.570312 11.425781 -103.0625 10 -103.84375 L 8.625 -105.421875 C 7.84375 -106.847656 7.125 -107.628906 6.46875 -107.765625 L 4.3125 -108.359375 Z M 4.3125 -110.515625 "/></g></g><g transform="translate(741.67418, 760.452341)"><g><path d="M 2.546875 -88.375 C 2.941406 -90.332031 3.203125 -91.929688 3.328125 -93.171875 C 3.460938 -94.410156 3.003906 -95.75 1.953125 -97.1875 C 2.484375 -99.28125 2.910156 -100.910156 3.234375 -102.078125 C 3.554688 -103.253906 3.585938 -104.890625 3.328125 -106.984375 C 4.503906 -110.378906 6.300781 -113.25 8.71875 -115.59375 C 11.132812 -117.945312 13.78125 -119.941406 16.65625 -121.578125 C 19.53125 -123.210938 22.535156 -124.582031 25.671875 -125.6875 C 28.804688 -126.800781 31.742188 -127.75 34.484375 -128.53125 C 34.484375 -129.050781 34.222656 -129.3125 33.703125 -129.3125 C 33.179688 -129.3125 33.050781 -129.640625 33.3125 -130.296875 C 40.363281 -131.609375 47.445312 -133.503906 54.5625 -135.984375 C 61.6875 -138.460938 68.96875 -140.679688 76.40625 -142.640625 C 83.851562 -144.597656 91.492188 -145.804688 99.328125 -146.265625 C 107.171875 -146.722656 115.40625 -145.710938 124.03125 -143.234375 C 124.550781 -141.660156 125.269531 -140.15625 126.1875 -138.71875 C 127.101562 -137.28125 128.050781 -135.875 129.03125 -134.5 C 130.007812 -133.132812 130.890625 -131.796875 131.671875 -130.484375 C 132.453125 -129.179688 132.910156 -127.8125 133.046875 -126.375 C 134.609375 -124.9375 135.878906 -123.398438 136.859375 -121.765625 C 137.835938 -120.140625 138.003906 -117.957031 137.359375 -115.21875 C 135.921875 -114.164062 134.414062 -113.117188 132.84375 -112.078125 C 131.28125 -111.035156 129.648438 -110.054688 127.953125 -109.140625 C 122.066406 -110.578125 116.1875 -111.097656 110.3125 -110.703125 C 104.4375 -110.316406 99.144531 -109.859375 94.4375 -109.328125 C 93 -110.898438 91.300781 -111.648438 89.34375 -111.578125 C 87.382812 -111.515625 85.328125 -111.1875 83.171875 -110.59375 C 81.015625 -110.007812 78.890625 -109.425781 76.796875 -108.84375 C 74.710938 -108.257812 72.753906 -108.097656 70.921875 -108.359375 C 69.492188 -107.046875 67.601562 -106.160156 65.25 -105.703125 C 62.894531 -105.242188 60.410156 -104.882812 57.796875 -104.625 C 57.671875 -103.976562 57.800781 -103.523438 58.1875 -103.265625 C 58.582031 -103.003906 58.648438 -102.476562 58.390625 -101.6875 C 59.304688 -100.507812 60.546875 -99.691406 62.109375 -99.234375 C 63.679688 -98.785156 65.28125 -98.363281 66.90625 -97.96875 C 68.539062 -97.570312 70.007812 -97.015625 71.3125 -96.296875 C 72.625 -95.578125 73.476562 -94.4375 73.875 -92.875 C 76.21875 -92.738281 78.238281 -92.113281 79.9375 -91 C 81.632812 -89.894531 83.070312 -88.554688 84.25 -86.984375 C 85.425781 -85.421875 86.273438 -83.757812 86.796875 -82 C 87.316406 -80.238281 87.515625 -78.640625 87.390625 -77.203125 C 87.910156 -75.890625 88.460938 -75.363281 89.046875 -75.625 C 89.640625 -75.894531 90.328125 -75.570312 91.109375 -74.65625 C 91.628906 -72.695312 92.835938 -70.640625 94.734375 -68.484375 C 96.628906 -66.328125 98.097656 -64.007812 99.140625 -61.53125 C 99.398438 -57.601562 99.628906 -54.070312 99.828125 -50.9375 C 100.023438 -47.800781 99.472656 -44.734375 98.171875 -41.734375 C 95.941406 -35.984375 92.738281 -30.820312 88.5625 -26.25 C 84.382812 -21.675781 79.648438 -17.660156 74.359375 -14.203125 C 69.066406 -10.742188 63.476562 -7.738281 57.59375 -5.1875 C 51.71875 -2.644531 45.910156 -0.523438 40.171875 1.171875 C 39.648438 1.046875 39.03125 1.046875 38.3125 1.171875 C 37.59375 1.304688 37.425781 0.914062 37.8125 0 C 36.632812 1.039062 35.296875 1.691406 33.796875 1.953125 C 32.296875 2.210938 30.660156 2.3125 28.890625 2.25 C 27.128906 2.1875 25.367188 2.085938 23.609375 1.953125 C 21.847656 1.828125 20.117188 1.894531 18.421875 2.15625 C 17.367188 1.113281 16.414062 0.0703125 15.5625 -0.96875 C 14.71875 -2.019531 14.035156 -3.265625 13.515625 -4.703125 C 12.867188 -4.835938 12.578125 -5.257812 12.640625 -5.96875 C 12.703125 -6.6875 12.40625 -7.046875 11.75 -7.046875 C 11.75 -7.578125 11.8125 -7.972656 11.9375 -8.234375 C 12.070312 -8.492188 12.207031 -8.753906 12.34375 -9.015625 C 12.863281 -9.398438 13.09375 -9.691406 13.03125 -9.890625 C 12.96875 -10.085938 12.769531 -10.285156 12.4375 -10.484375 C 12.113281 -10.679688 11.785156 -10.910156 11.453125 -11.171875 C 11.128906 -11.429688 11.035156 -11.753906 11.171875 -12.140625 C 11.816406 -13.316406 12.039062 -14.722656 11.84375 -16.359375 C 11.65625 -17.992188 11.492188 -19.660156 11.359375 -21.359375 C 11.234375 -23.054688 11.363281 -24.65625 11.75 -26.15625 C 12.144531 -27.65625 13.257812 -28.929688 15.09375 -29.984375 C 20.445312 -29.453125 25.503906 -29.707031 30.265625 -30.75 C 35.035156 -31.800781 39.539062 -33.238281 43.78125 -35.0625 C 48.03125 -36.894531 52.082031 -38.890625 55.9375 -41.046875 C 59.789062 -43.203125 63.546875 -45.195312 67.203125 -47.03125 C 67.597656 -48.332031 68.21875 -49.441406 69.0625 -50.359375 C 69.914062 -51.273438 70.796875 -52.15625 71.703125 -53 C 72.617188 -53.851562 73.46875 -54.769531 74.25 -55.75 C 75.039062 -56.726562 75.632812 -57.9375 76.03125 -59.375 C 76.15625 -59.894531 76.148438 -60.285156 76.015625 -60.546875 C 75.890625 -60.804688 75.695312 -61.035156 75.4375 -61.234375 C 75.175781 -61.429688 74.914062 -61.660156 74.65625 -61.921875 C 74.394531 -62.179688 74.265625 -62.570312 74.265625 -63.09375 C 73.867188 -63.21875 73.503906 -63.347656 73.171875 -63.484375 C 72.847656 -63.617188 72.554688 -63.6875 72.296875 -63.6875 C 68.898438 -65.382812 65.304688 -66.816406 61.515625 -67.984375 C 57.734375 -69.160156 54.535156 -70.46875 51.921875 -71.90625 C 50.359375 -70.863281 48.789062 -70.601562 47.21875 -71.125 C 45.65625 -71.644531 43.757812 -72.164062 41.53125 -72.6875 C 36.050781 -72.945312 30.859375 -73.46875 25.953125 -74.25 C 21.054688 -75.039062 16.320312 -76.414062 11.75 -78.375 C 11.488281 -79.15625 11.160156 -79.835938 10.765625 -80.421875 C 10.378906 -81.015625 9.46875 -81.179688 8.03125 -80.921875 C 7.113281 -82.222656 6.164062 -83.429688 5.1875 -84.546875 C 4.207031 -85.660156 3.328125 -86.9375 2.546875 -88.375 Z M 2.546875 -88.375 "/></g></g><g transform="translate(857.281482, 760.452341)"><g/></g><g transform="translate(931.544478, 760.452341)"><g><path d="M 35.46875 -18.421875 C 34.15625 -17.367188 33.367188 -16.023438 33.109375 -14.390625 C 32.847656 -12.765625 32.519531 -11.164062 32.125 -9.59375 C 31.738281 -8.03125 31.054688 -6.691406 30.078125 -5.578125 C 29.097656 -4.472656 27.367188 -3.984375 24.890625 -4.109375 C 24.359375 -3.460938 24.253906 -3.070312 24.578125 -2.9375 C 24.910156 -2.8125 25.207031 -2.222656 25.46875 -1.171875 C 23.644531 -1.429688 22.335938 -1.300781 21.546875 -0.78125 C 20.765625 -0.257812 19.785156 0.128906 18.609375 0.390625 C 15.609375 -0.523438 13.09375 -2.191406 11.0625 -4.609375 C 9.039062 -7.023438 7.28125 -9.664062 5.78125 -12.53125 C 4.28125 -15.40625 2.972656 -18.34375 1.859375 -21.34375 C 0.753906 -24.351562 -0.382812 -26.96875 -1.5625 -29.1875 C -1.5625 -29.71875 -1.332031 -29.945312 -0.875 -29.875 C -0.425781 -29.8125 -0.00390625 -29.78125 0.390625 -29.78125 C -0.265625 -31.082031 -0.753906 -32.550781 -1.078125 -34.1875 C -1.398438 -35.820312 -2.019531 -37.160156 -2.9375 -38.203125 C 0.851562 -46.304688 4.898438 -54.765625 9.203125 -63.578125 C 13.515625 -72.398438 17.859375 -81.347656 22.234375 -90.421875 C 26.609375 -99.503906 30.984375 -108.648438 35.359375 -117.859375 C 39.742188 -127.066406 43.957031 -136.113281 48 -145 C 51.65625 -143.6875 55.210938 -142.148438 58.671875 -140.390625 C 62.140625 -138.628906 65.3125 -136.570312 68.1875 -134.21875 C 71.0625 -131.863281 73.507812 -129.148438 75.53125 -126.078125 C 77.5625 -123.015625 78.898438 -119.523438 79.546875 -115.609375 C 79.285156 -114.816406 78.957031 -114.550781 78.5625 -114.8125 C 78.175781 -115.082031 77.851562 -114.953125 77.59375 -114.421875 C 78.25 -113.640625 78.609375 -113.082031 78.671875 -112.75 C 78.734375 -112.425781 78.695312 -112.101562 78.5625 -111.78125 C 78.4375 -111.457031 78.375 -111.03125 78.375 -110.5 C 78.375 -109.976562 78.703125 -109.265625 79.359375 -108.359375 C 78.703125 -108.484375 78.242188 -108.378906 77.984375 -108.046875 C 77.722656 -107.722656 77.265625 -107.695312 76.609375 -107.96875 C 77.265625 -106.132812 77.460938 -104.691406 77.203125 -103.640625 C 76.941406 -102.597656 76.546875 -101.648438 76.015625 -100.796875 C 75.492188 -99.953125 75.070312 -99.039062 74.75 -98.0625 C 74.425781 -97.082031 74.523438 -95.742188 75.046875 -94.046875 C 74.523438 -94.046875 74.164062 -93.945312 73.96875 -93.75 C 73.769531 -93.5625 73.601562 -93.332031 73.46875 -93.0625 C 73.34375 -92.800781 73.179688 -92.570312 72.984375 -92.375 C 72.785156 -92.1875 72.425781 -92.15625 71.90625 -92.28125 C 72.300781 -88.882812 72.429688 -85.457031 72.296875 -82 C 72.171875 -78.539062 72.039062 -75.015625 71.90625 -71.421875 C 71.78125 -67.828125 71.78125 -64.132812 71.90625 -60.34375 C 72.039062 -56.5625 72.566406 -52.644531 73.484375 -48.59375 C 79.097656 -51.851562 83.632812 -56.097656 87.09375 -61.328125 C 90.550781 -66.554688 93.289062 -72.367188 95.3125 -78.765625 C 97.34375 -85.171875 98.910156 -92.03125 100.015625 -99.34375 C 101.128906 -106.65625 102.273438 -114.097656 103.453125 -121.671875 C 104.890625 -123.109375 106.03125 -124.875 106.875 -126.96875 C 107.726562 -129.0625 108.445312 -131.21875 109.03125 -133.4375 C 109.625 -135.65625 110.210938 -137.90625 110.796875 -140.1875 C 111.390625 -142.476562 112.207031 -144.535156 113.25 -146.359375 C 115.601562 -146.097656 117.59375 -145.410156 119.21875 -144.296875 C 120.851562 -143.191406 122.390625 -141.953125 123.828125 -140.578125 C 125.265625 -139.210938 126.765625 -137.941406 128.328125 -136.765625 C 129.898438 -135.585938 131.863281 -134.800781 134.21875 -134.40625 C 136.039062 -131.800781 137.734375 -129.289062 139.296875 -126.875 C 140.867188 -124.457031 141.921875 -121.742188 142.453125 -118.734375 C 141.660156 -117.429688 141.066406 -115.992188 140.671875 -114.421875 C 140.285156 -112.859375 139.863281 -111.289062 139.40625 -109.71875 C 138.945312 -108.15625 138.328125 -106.71875 137.546875 -105.40625 C 136.765625 -104.101562 135.65625 -102.992188 134.21875 -102.078125 C 133.820312 -98.160156 133.234375 -94.503906 132.453125 -91.109375 C 131.671875 -87.710938 130.953125 -84.378906 130.296875 -81.109375 C 129.640625 -77.847656 129.050781 -74.453125 128.53125 -70.921875 C 128.007812 -67.398438 127.816406 -63.550781 127.953125 -59.375 C 126.773438 -55.582031 125.46875 -51.691406 124.03125 -47.703125 C 122.59375 -43.722656 121.546875 -40.035156 120.890625 -36.640625 C 118.410156 -34.679688 116.453125 -32.265625 115.015625 -29.390625 C 113.578125 -26.515625 112.078125 -23.640625 110.515625 -20.765625 C 109.859375 -20.242188 109.460938 -20.144531 109.328125 -20.46875 C 109.203125 -20.800781 108.613281 -21.03125 107.5625 -21.15625 C 107.695312 -19.976562 107.46875 -19.226562 106.875 -18.90625 C 106.289062 -18.582031 106.328125 -17.632812 106.984375 -16.0625 C 104.765625 -15.019531 102.804688 -13.648438 101.109375 -11.953125 C 99.410156 -10.253906 97.546875 -8.6875 95.515625 -7.25 C 93.492188 -5.8125 91.144531 -4.863281 88.46875 -4.40625 C 85.789062 -3.945312 82.296875 -4.503906 77.984375 -6.078125 C 71.578125 -10.773438 65.828125 -16.191406 60.734375 -22.328125 C 55.640625 -28.472656 51.59375 -35.726562 48.59375 -44.09375 C 47.289062 -43.695312 46.3125 -42.84375 45.65625 -41.53125 C 45 -40.226562 44.410156 -38.859375 43.890625 -37.421875 C 43.367188 -35.984375 42.84375 -34.675781 42.3125 -33.5 C 41.789062 -32.320312 41.007812 -31.734375 39.96875 -31.734375 C 39.707031 -30.566406 39.21875 -29.492188 38.5 -28.515625 C 37.78125 -27.535156 37.09375 -26.550781 36.4375 -25.5625 C 35.789062 -24.582031 35.300781 -23.503906 34.96875 -22.328125 C 34.644531 -21.160156 34.8125 -19.859375 35.46875 -18.421875 Z M 35.46875 -18.421875 "/></g></g><g transform="translate(1068.901627, 760.452341)"><g><path d="M 14.109375 -96.984375 C 13.847656 -98.679688 13.519531 -99.726562 13.125 -100.125 C 14.039062 -102.476562 14.726562 -104.796875 15.1875 -107.078125 C 15.644531 -109.367188 16.003906 -111.554688 16.265625 -113.640625 C 16.523438 -115.472656 16.816406 -117.171875 17.140625 -118.734375 C 17.472656 -120.304688 17.898438 -121.8125 18.421875 -123.25 C 20.640625 -123.769531 22.300781 -124.710938 23.40625 -126.078125 C 24.519531 -127.453125 25.40625 -128.664062 26.0625 -129.71875 C 28.414062 -129.84375 29.945312 -129.515625 30.65625 -128.734375 C 31.375 -127.953125 32.191406 -126.644531 33.109375 -124.8125 C 33.765625 -123.375 34.679688 -121.835938 35.859375 -120.203125 C 37.035156 -118.578125 38.796875 -117.304688 41.140625 -116.390625 C 41.535156 -114.953125 41.992188 -113.578125 42.515625 -112.265625 C 43.035156 -110.960938 43.625 -109.59375 44.28125 -108.15625 C 45.457031 -105.414062 46.566406 -102.570312 47.609375 -99.625 C 48.660156 -96.6875 49.25 -93.914062 49.375 -91.3125 C 47.8125 -88.300781 46.601562 -84.835938 45.75 -80.921875 C 44.90625 -77.003906 44.382812 -73.050781 44.1875 -69.0625 C 43.988281 -65.082031 44.082031 -61.265625 44.46875 -57.609375 C 44.863281 -53.953125 45.519531 -50.878906 46.4375 -48.390625 L 47.609375 -45.265625 L 51.921875 -45.65625 C 56.628906 -46.832031 60.875 -48.171875 64.65625 -49.671875 C 68.445312 -51.171875 71.972656 -52.960938 75.234375 -55.046875 C 78.503906 -57.140625 81.640625 -59.523438 84.640625 -62.203125 C 87.648438 -64.890625 90.785156 -68.0625 94.046875 -71.71875 C 97.179688 -75.375 99.988281 -79.519531 102.46875 -84.15625 C 104.957031 -88.789062 107.015625 -93.585938 108.640625 -98.546875 C 110.273438 -103.515625 111.550781 -108.476562 112.46875 -113.4375 C 113.382812 -118.40625 113.972656 -123.046875 114.234375 -127.359375 C 116.710938 -128.535156 118.082031 -130.429688 118.34375 -133.046875 L 117.765625 -135.59375 C 117.367188 -136.238281 117.203125 -136.851562 117.265625 -137.4375 C 117.328125 -138.03125 117.492188 -138.585938 117.765625 -139.109375 C 118.804688 -142.117188 121.023438 -144.34375 124.421875 -145.78125 C 126.773438 -144.207031 128.960938 -142.503906 130.984375 -140.671875 C 133.003906 -138.847656 134.863281 -137.023438 136.5625 -135.203125 C 136.820312 -131.671875 137.34375 -128.628906 138.125 -126.078125 C 138.914062 -123.535156 139.769531 -121.085938 140.6875 -118.734375 C 141.601562 -116.515625 142.414062 -114.359375 143.125 -112.265625 C 143.84375 -110.179688 144.335938 -107.632812 144.609375 -104.625 C 143.296875 -100.707031 142.34375 -97.019531 141.75 -93.5625 C 141.164062 -90.101562 140.613281 -86.476562 140.09375 -82.6875 L 139.703125 -80.53125 C 137.347656 -76.476562 135.023438 -72.328125 132.734375 -68.078125 C 130.453125 -63.835938 128.59375 -60.148438 127.15625 -57.015625 C 126.375 -56.234375 125.6875 -55.316406 125.09375 -54.265625 C 124.507812 -53.222656 123.957031 -52.179688 123.4375 -51.140625 C 123.175781 -50.742188 122.816406 -50.085938 122.359375 -49.171875 C 121.898438 -48.265625 121.476562 -47.613281 121.09375 -47.21875 L 116.390625 -48.984375 L 115.21875 -42.90625 L 112.078125 -42.125 L 109.71875 -39.390625 C 106.71875 -34.160156 103.550781 -29.78125 100.21875 -26.25 C 96.882812 -22.726562 93.160156 -19.59375 89.046875 -16.84375 C 84.929688 -14.101562 80.296875 -11.523438 75.140625 -9.109375 C 69.984375 -6.691406 64.070312 -4.113281 57.40625 -1.375 C 54.789062 -1.757812 52.535156 -1.984375 50.640625 -2.046875 C 48.753906 -2.117188 46.894531 -2.21875 45.0625 -2.34375 C 43.238281 -2.34375 41.476562 -2.410156 39.78125 -2.546875 C 38.082031 -2.679688 36.117188 -2.878906 33.890625 -3.140625 C 33.367188 -4.316406 32.648438 -5.164062 31.734375 -5.6875 C 30.828125 -6.207031 29.976562 -6.46875 29.1875 -6.46875 C 26.582031 -7.769531 24.625 -9.597656 23.3125 -11.953125 C 22.007812 -14.304688 20.640625 -16.921875 19.203125 -19.796875 C 18.546875 -21.359375 17.859375 -22.921875 17.140625 -24.484375 C 16.421875 -26.054688 15.539062 -27.5625 14.5 -29 L 18.421875 -30.171875 L 13.328125 -36.046875 C 12.929688 -36.441406 12.503906 -36.832031 12.046875 -37.21875 C 11.585938 -37.613281 11.164062 -38.070312 10.78125 -38.59375 L 10.78125 -42.328125 C 10.257812 -53.035156 10.03125 -62.925781 10.09375 -72 C 10.15625 -81.082031 11.363281 -89.085938 13.71875 -96.015625 Z M 14.109375 -96.984375 "/></g></g><g transform="translate(1208.414166, 760.452341)"><g><path d="M 4.3125 -110.515625 C 4.175781 -111.554688 3.945312 -112.5 3.625 -113.34375 C 3.300781 -114.195312 2.941406 -115.144531 2.546875 -116.1875 C 1.890625 -117.757812 1.300781 -119.457031 0.78125 -121.28125 C 0.257812 -123.113281 0 -125.269531 0 -127.75 C 0.257812 -129.0625 0.582031 -130.007812 0.96875 -130.59375 C 1.363281 -131.175781 1.757812 -131.664062 2.15625 -132.0625 L 2.9375 -135.59375 L 5.875 -135.59375 C 6.925781 -135.457031 8.003906 -135.390625 9.109375 -135.390625 C 10.222656 -135.390625 11.300781 -135.390625 12.34375 -135.390625 C 17.3125 -135.390625 22.40625 -135.582031 27.625 -135.96875 C 32.851562 -136.363281 38.207031 -136.828125 43.6875 -137.359375 C 49.695312 -138.140625 56.164062 -138.722656 63.09375 -139.109375 C 63.75 -140.546875 64.171875 -141.460938 64.359375 -141.859375 C 64.554688 -142.253906 64.785156 -142.710938 65.046875 -143.234375 L 67.203125 -144.40625 C 70.210938 -144.539062 72.300781 -144.179688 73.46875 -143.328125 C 74.644531 -142.484375 75.5625 -141.664062 76.21875 -140.875 C 79.613281 -141.132812 83.070312 -141.492188 86.59375 -141.953125 C 90.125 -142.410156 93.785156 -142.898438 97.578125 -143.421875 C 102.804688 -144.078125 108.097656 -144.726562 113.453125 -145.375 C 118.804688 -146.03125 124.03125 -146.359375 129.125 -146.359375 C 131.34375 -146.359375 133.429688 -146.289062 135.390625 -146.15625 C 137.347656 -146.03125 139.242188 -145.835938 141.078125 -145.578125 L 143.421875 -143.8125 C 143.941406 -142.90625 144.59375 -142.054688 145.375 -141.265625 C 146.164062 -140.484375 147.082031 -139.703125 148.125 -138.921875 C 150.082031 -137.347656 152.007812 -135.382812 153.90625 -133.03125 C 155.800781 -130.6875 156.488281 -127.226562 155.96875 -122.65625 L 154.984375 -120.703125 C 154.460938 -120.179688 153.8125 -119.65625 153.03125 -119.125 L 151.0625 -116.578125 L 148.90625 -116.578125 C 147.601562 -116.578125 146.625 -116.476562 145.96875 -116.28125 C 145.320312 -116.09375 144.539062 -115.800781 143.625 -115.40625 C 143.101562 -115.144531 142.515625 -114.914062 141.859375 -114.71875 C 141.203125 -114.519531 140.484375 -114.289062 139.703125 -114.03125 C 138.265625 -114.164062 137.15625 -114.234375 136.375 -114.234375 C 135.59375 -114.234375 134.675781 -114.234375 133.625 -114.234375 C 129.707031 -114.234375 125.460938 -113.972656 120.890625 -113.453125 C 116.316406 -112.929688 111.875 -112.34375 107.5625 -111.6875 C 104.4375 -111.289062 101.4375 -110.929688 98.5625 -110.609375 C 95.6875 -110.285156 93.070312 -109.988281 90.71875 -109.71875 C 89.414062 -106.320312 88.238281 -103.316406 87.1875 -100.703125 C 86.144531 -98.097656 85.035156 -95.488281 83.859375 -92.875 C 82.679688 -90.257812 81.570312 -87.613281 80.53125 -84.9375 C 79.488281 -82.257812 78.507812 -79.289062 77.59375 -76.03125 C 76.019531 -73.675781 74.710938 -71.421875 73.671875 -69.265625 C 72.628906 -67.109375 71.78125 -64.660156 71.125 -61.921875 C 69.164062 -59.691406 67.757812 -57.269531 66.90625 -54.65625 C 66.0625 -52.050781 65.3125 -49.832031 64.65625 -48 L 63.875 -45.0625 C 62.957031 -44.144531 62.398438 -43.425781 62.203125 -42.90625 C 62.015625 -42.382812 61.65625 -41.796875 61.125 -41.140625 C 60.738281 -39.441406 60.21875 -37.8125 59.5625 -36.25 C 59.300781 -35.59375 59.039062 -34.90625 58.78125 -34.1875 C 58.519531 -33.46875 58.453125 -32.914062 58.578125 -32.53125 C 58.316406 -31.09375 57.925781 -29.976562 57.40625 -29.1875 C 57.40625 -28.40625 57.335938 -27.625 57.203125 -26.84375 C 57.078125 -26.0625 56.953125 -25.28125 56.828125 -24.5 C 56.566406 -23.582031 56.367188 -22.765625 56.234375 -22.046875 C 56.097656 -21.328125 56.164062 -20.640625 56.4375 -19.984375 C 56.820312 -19.460938 57.207031 -18.941406 57.59375 -18.421875 C 57.988281 -17.898438 58.316406 -17.242188 58.578125 -16.453125 C 58.847656 -16.191406 59.175781 -15.992188 59.5625 -15.859375 C 59.957031 -15.734375 60.285156 -15.539062 60.546875 -15.28125 C 61.585938 -14.363281 62.566406 -13.84375 63.484375 -13.71875 L 65.4375 -11.359375 C 66.226562 -6.660156 65.507812 -3.003906 63.28125 -0.390625 C 60.9375 2.609375 57.019531 4.109375 51.53125 4.109375 L 48.78125 3.921875 C 47.875 3.003906 47.351562 2.414062 47.21875 2.15625 C 46.039062 1.632812 45.0625 1.207031 44.28125 0.875 C 43.5 0.550781 42.78125 -0.0664062 42.125 -0.984375 C 41.863281 -1.242188 41.535156 -1.40625 41.140625 -1.46875 C 40.753906 -1.53125 40.429688 -1.691406 40.171875 -1.953125 C 38.859375 -2.347656 37.8125 -2.804688 37.03125 -3.328125 L 34.875 -4.5 C 35.007812 -5.8125 35.078125 -6.726562 35.078125 -7.25 C 34.023438 -8.6875 33.203125 -10.253906 32.609375 -11.953125 C 32.023438 -13.648438 31.539062 -15.414062 31.15625 -17.25 C 30.757812 -18.675781 30.398438 -19.976562 30.078125 -21.15625 C 29.753906 -22.332031 29.265625 -23.378906 28.609375 -24.296875 C 28.347656 -33.441406 29.195312 -41.113281 31.15625 -47.3125 C 33.113281 -53.519531 35.269531 -59.5625 37.625 -65.4375 C 38.925781 -68.570312 40.164062 -71.769531 41.34375 -75.03125 C 42.519531 -78.300781 43.566406 -81.632812 44.484375 -85.03125 L 46.640625 -87.1875 C 47.546875 -87.976562 48.128906 -88.4375 48.390625 -88.5625 C 48.390625 -90.257812 48.71875 -91.925781 49.375 -93.5625 C 50.03125 -95.195312 50.75 -96.863281 51.53125 -98.5625 C 52.050781 -99.601562 52.539062 -100.644531 53 -101.6875 C 53.457031 -102.738281 53.753906 -103.65625 53.890625 -104.4375 C 52.972656 -104.4375 52.15625 -104.398438 51.4375 -104.328125 C 50.71875 -104.265625 49.96875 -104.171875 49.1875 -104.046875 C 47.488281 -103.648438 45.851562 -103.453125 44.28125 -103.453125 C 43.101562 -103.453125 42.253906 -103.519531 41.734375 -103.65625 C 40.691406 -103.132812 39.710938 -102.835938 38.796875 -102.765625 C 37.878906 -102.703125 36.960938 -102.671875 36.046875 -102.671875 L 31.34375 -102.671875 C 29.78125 -102.671875 28.539062 -102.472656 27.625 -102.078125 C 25.800781 -102.078125 24.625 -102.078125 24.09375 -102.078125 C 23.570312 -102.078125 22.988281 -102.078125 22.34375 -102.078125 L 17.640625 -102.078125 C 16.585938 -102.078125 15.40625 -102.175781 14.09375 -102.375 C 12.789062 -102.570312 11.425781 -103.0625 10 -103.84375 L 8.625 -105.421875 C 7.84375 -106.847656 7.125 -107.628906 6.46875 -107.765625 L 4.3125 -108.359375 Z M 4.3125 -110.515625 "/></g></g><g transform="translate(1330.291695, 760.452341)"><g><path d="M 5.484375 -16.84375 C 4.828125 -16.71875 4.238281 -17.207031 3.71875 -18.3125 C 3.195312 -19.425781 2.609375 -20.503906 1.953125 -21.546875 L 4.109375 -21.546875 C 3.203125 -24.421875 2.972656 -27.066406 3.421875 -29.484375 C 3.878906 -31.898438 4.4375 -34.25 5.09375 -36.53125 C 5.75 -38.820312 6.304688 -41.046875 6.765625 -43.203125 C 7.222656 -45.359375 6.992188 -47.613281 6.078125 -49.96875 C 6.722656 -49.570312 7.207031 -49.734375 7.53125 -50.453125 C 7.863281 -51.171875 8.128906 -52.082031 8.328125 -53.1875 C 8.523438 -54.300781 8.585938 -55.476562 8.515625 -56.71875 C 8.453125 -57.957031 8.359375 -58.972656 8.234375 -59.765625 C 9.929688 -63.804688 11.269531 -67.984375 12.25 -72.296875 C 13.226562 -76.609375 14.109375 -80.882812 14.890625 -85.125 C 15.671875 -89.375 16.550781 -93.488281 17.53125 -97.46875 C 18.507812 -101.457031 19.785156 -105.21875 21.359375 -108.75 C 23.179688 -109.007812 25.101562 -108.78125 27.125 -108.0625 C 29.15625 -107.34375 30.5 -106.460938 31.15625 -105.421875 C 35.207031 -108.554688 38.800781 -112.34375 41.9375 -116.78125 C 45.070312 -121.21875 48.238281 -125.554688 51.4375 -129.796875 C 54.632812 -134.046875 58.253906 -137.800781 62.296875 -141.0625 C 66.347656 -144.332031 71.378906 -146.296875 77.390625 -146.953125 C 80.523438 -144.734375 84.050781 -142.347656 87.96875 -139.796875 C 91.894531 -137.253906 95.097656 -134.085938 97.578125 -130.296875 C 98.617188 -129.640625 99.628906 -128.953125 100.609375 -128.234375 C 101.585938 -127.515625 102.601562 -126.832031 103.65625 -126.1875 L 103.65625 -123.25 C 105.476562 -121.550781 107.007812 -119.554688 108.25 -117.265625 C 109.5 -114.984375 110.613281 -112.566406 111.59375 -110.015625 C 112.570312 -107.472656 113.515625 -104.894531 114.421875 -102.28125 C 115.335938 -99.664062 116.382812 -97.25 117.5625 -95.03125 C 117.300781 -94.25 117.203125 -93.5625 117.265625 -92.96875 C 117.328125 -92.382812 117.457031 -91.796875 117.65625 -91.203125 C 117.851562 -90.617188 118.015625 -89.96875 118.140625 -89.25 C 118.273438 -88.53125 118.34375 -87.648438 118.34375 -86.609375 C 117.820312 -79.679688 115.566406 -74.09375 111.578125 -69.84375 C 107.597656 -65.601562 102.765625 -62.144531 97.078125 -59.46875 C 91.398438 -56.789062 85.359375 -54.503906 78.953125 -52.609375 C 72.554688 -50.710938 66.75 -48.65625 61.53125 -46.4375 C 61.53125 -45.914062 61.820312 -45.65625 62.40625 -45.65625 C 62.988281 -45.65625 63.148438 -45.265625 62.890625 -44.484375 C 66.816406 -42.128906 69.851562 -40.234375 72 -38.796875 C 74.15625 -37.359375 76.179688 -36.148438 78.078125 -35.171875 C 79.972656 -34.191406 82.0625 -33.375 84.34375 -32.71875 C 86.632812 -32.0625 89.804688 -31.28125 93.859375 -30.375 C 97.898438 -29.457031 101.0625 -28.703125 103.34375 -28.109375 C 105.632812 -27.523438 107.691406 -27.066406 109.515625 -26.734375 C 111.347656 -26.410156 113.3125 -26.117188 115.40625 -25.859375 C 117.5 -25.597656 120.304688 -25.273438 123.828125 -24.890625 C 125.265625 -23.453125 126.441406 -21.75 127.359375 -19.78125 C 128.273438 -17.820312 128.925781 -15.863281 129.3125 -13.90625 C 129.707031 -11.945312 129.804688 -10.085938 129.609375 -8.328125 C 129.410156 -6.566406 128.859375 -5.160156 127.953125 -4.109375 C 128.078125 -3.585938 128.429688 -3.359375 129.015625 -3.421875 C 129.609375 -3.492188 130.234375 -3.460938 130.890625 -3.328125 C 129.972656 -2.671875 129.1875 -1.882812 128.53125 -0.96875 C 127.882812 -0.0625 127.234375 0.847656 126.578125 1.765625 C 125.921875 2.679688 125.164062 3.53125 124.3125 4.3125 C 123.46875 5.09375 122.394531 5.550781 121.09375 5.6875 C 116.382812 7.507812 110.375 7.570312 103.0625 5.875 C 95.75 4.175781 86.410156 1.171875 75.046875 -3.140625 C 69.429688 -5.222656 64.859375 -7.113281 61.328125 -8.8125 C 57.796875 -10.507812 54.722656 -12.175781 52.109375 -13.8125 C 49.503906 -15.445312 47.085938 -17.207031 44.859375 -19.09375 C 42.640625 -20.988281 40.097656 -23.242188 37.234375 -25.859375 C 36.835938 -25.734375 36.601562 -25.472656 36.53125 -25.078125 C 36.46875 -24.691406 36.242188 -24.429688 35.859375 -24.296875 C 35.203125 -19.066406 34.1875 -14.816406 32.8125 -11.546875 C 31.445312 -8.285156 29.457031 -4.957031 26.84375 -1.5625 C 24.75 -1.957031 23.34375 -1.757812 22.625 -0.96875 C 21.90625 -0.1875 21.023438 0.523438 19.984375 1.171875 C 18.679688 1.429688 17.703125 1.398438 17.046875 1.078125 C 16.390625 0.753906 15.800781 0.394531 15.28125 0 C 14.757812 -0.394531 14.171875 -0.785156 13.515625 -1.171875 C 12.867188 -1.566406 11.828125 -1.695312 10.390625 -1.5625 C 9.992188 -2.738281 9.597656 -3.878906 9.203125 -4.984375 C 8.816406 -6.097656 7.773438 -6.59375 6.078125 -6.46875 C 6.460938 -7.644531 6.585938 -8.65625 6.453125 -9.5 C 6.328125 -10.351562 6.132812 -11.140625 5.875 -11.859375 C 5.613281 -12.578125 5.382812 -13.328125 5.1875 -14.109375 C 5 -14.890625 5.097656 -15.800781 5.484375 -16.84375 Z M 70.921875 -106.390625 C 69.222656 -103.910156 67.328125 -101.65625 65.234375 -99.625 C 63.148438 -97.601562 61.09375 -95.515625 59.0625 -93.359375 C 57.039062 -91.203125 55.242188 -88.847656 53.671875 -86.296875 C 52.109375 -83.753906 51.003906 -80.722656 50.359375 -77.203125 C 55.835938 -77.847656 61.582031 -79.378906 67.59375 -81.796875 C 73.601562 -84.210938 79.285156 -86.535156 84.640625 -88.765625 C 83.992188 -93.597656 82.296875 -97.484375 79.546875 -100.421875 C 76.804688 -103.359375 73.929688 -105.347656 70.921875 -106.390625 Z M 70.921875 -106.390625 "/></g></g><g transform="translate(1460.007007, 760.452341)"><g><path d="M 3.328125 2.34375 C 1.503906 1.175781 0.0351562 -0.320312 -1.078125 -2.15625 C -2.191406 -3.988281 -3.109375 -5.945312 -3.828125 -8.03125 C -4.546875 -10.125 -5.128906 -12.3125 -5.578125 -14.59375 C -6.035156 -16.882812 -6.523438 -19.070312 -7.046875 -21.15625 C -7.046875 -22.988281 -6.65625 -24.328125 -5.875 -25.171875 C -5.09375 -26.023438 -4.242188 -26.84375 -3.328125 -27.625 C -0.191406 -27.757812 2.613281 -28.019531 5.09375 -28.40625 C 7.570312 -28.800781 9.988281 -29.191406 12.34375 -29.578125 C 14.695312 -29.972656 17.046875 -30.332031 19.390625 -30.65625 C 21.742188 -30.988281 24.296875 -31.15625 27.046875 -31.15625 C 29.003906 -35.207031 30.832031 -39.09375 32.53125 -42.8125 C 34.226562 -46.53125 35.859375 -50.085938 37.421875 -53.484375 C 38.203125 -56.753906 39.210938 -59.789062 40.453125 -62.59375 C 41.703125 -65.40625 42.910156 -68.082031 44.078125 -70.625 C 45.253906 -73.175781 46.300781 -75.722656 47.21875 -78.265625 C 48.132812 -80.816406 48.722656 -83.53125 48.984375 -86.40625 C 50.546875 -90.976562 51.945312 -95.191406 53.1875 -99.046875 C 54.4375 -102.898438 55.382812 -107.503906 56.03125 -112.859375 C 51.070312 -112.078125 47.085938 -111.328125 44.078125 -110.609375 C 41.078125 -109.890625 38.925781 -109.203125 37.625 -108.546875 C 35.007812 -108.679688 32.945312 -109.203125 31.4375 -110.109375 C 29.9375 -111.023438 28.726562 -112.132812 27.8125 -113.4375 C 26.90625 -114.75 26.125 -116.253906 25.46875 -117.953125 C 24.820312 -119.648438 24.039062 -121.414062 23.125 -123.25 C 23.644531 -124.425781 23.773438 -126.15625 23.515625 -128.4375 C 23.253906 -130.71875 22.46875 -132.382812 21.15625 -133.4375 C 22.207031 -133.695312 22.992188 -134.578125 23.515625 -136.078125 C 24.035156 -137.578125 24.097656 -138.722656 23.703125 -139.515625 C 25.929688 -140.160156 28.285156 -140.582031 30.765625 -140.78125 C 33.242188 -140.976562 35.691406 -141.171875 38.109375 -141.359375 C 40.523438 -141.554688 42.84375 -141.816406 45.0625 -142.140625 C 47.28125 -142.472656 49.175781 -143.160156 50.75 -144.203125 C 57.539062 -144.472656 64.625 -144.738281 72 -145 C 79.382812 -145.257812 86.210938 -145.582031 92.484375 -145.96875 C 94.835938 -145.1875 97.546875 -144.796875 100.609375 -144.796875 C 103.679688 -144.796875 106.75 -144.597656 109.8125 -144.203125 C 112.882812 -143.816406 115.628906 -142.96875 118.046875 -141.65625 C 120.460938 -140.351562 122.128906 -138.070312 123.046875 -134.8125 C 125.003906 -134.539062 126.472656 -134.015625 127.453125 -133.234375 C 128.429688 -132.453125 129.050781 -131.503906 129.3125 -130.390625 C 129.582031 -129.285156 129.679688 -128.046875 129.609375 -126.671875 C 129.546875 -125.296875 129.515625 -123.957031 129.515625 -122.65625 C 127.421875 -121.09375 124.773438 -119.816406 121.578125 -118.828125 C 118.378906 -117.847656 114.882812 -117.066406 111.09375 -116.484375 C 107.3125 -115.898438 103.363281 -115.507812 99.25 -115.3125 C 95.132812 -115.113281 91.113281 -114.945312 87.1875 -114.8125 C 86.539062 -110.507812 85.398438 -105.453125 83.765625 -99.640625 C 82.128906 -93.828125 80.460938 -88.144531 78.765625 -82.59375 C 77.066406 -77.039062 75.597656 -72.070312 74.359375 -67.6875 C 73.117188 -63.3125 72.5625 -60.472656 72.6875 -59.171875 C 71.382812 -56.171875 70.304688 -53.625 69.453125 -51.53125 C 68.609375 -49.4375 67.828125 -47.472656 67.109375 -45.640625 C 66.390625 -43.816406 65.671875 -42.023438 64.953125 -40.265625 C 64.234375 -38.503906 63.351562 -36.515625 62.3125 -34.296875 L 75.625 -34.296875 C 75.894531 -32.859375 76.484375 -31.875 77.390625 -31.34375 C 78.304688 -30.820312 79.285156 -30.363281 80.328125 -29.96875 C 81.378906 -29.582031 82.328125 -29.09375 83.171875 -28.5 C 84.023438 -27.914062 84.453125 -26.972656 84.453125 -25.671875 C 86.929688 -25.015625 88.492188 -24.03125 89.140625 -22.71875 C 89.796875 -21.414062 89.960938 -20.015625 89.640625 -18.515625 C 89.316406 -17.015625 88.664062 -15.476562 87.6875 -13.90625 C 86.707031 -12.34375 85.757812 -10.972656 84.84375 -9.796875 C 83.664062 -10.054688 82.550781 -9.757812 81.5 -8.90625 C 80.457031 -8.0625 79.484375 -7.117188 78.578125 -6.078125 C 74.785156 -6.597656 71.0625 -6.660156 67.40625 -6.265625 C 63.75 -5.878906 60.351562 -5.554688 57.21875 -5.296875 C 56.5625 -5.160156 56.296875 -4.796875 56.421875 -4.203125 C 56.554688 -3.617188 56.425781 -3.195312 56.03125 -2.9375 C 51.988281 -4.25 47.84375 -4.769531 43.59375 -4.5 C 39.351562 -4.238281 35.039062 -3.617188 30.65625 -2.640625 C 26.28125 -1.660156 21.804688 -0.617188 17.234375 0.484375 C 12.671875 1.597656 8.035156 2.21875 3.328125 2.34375 Z M 3.328125 2.34375 "/></g></g><g transform="translate(1563.465744, 760.452341)"><g><path d="M 4.3125 -110.515625 C 4.175781 -111.554688 3.945312 -112.5 3.625 -113.34375 C 3.300781 -114.195312 2.941406 -115.144531 2.546875 -116.1875 C 1.890625 -117.757812 1.300781 -119.457031 0.78125 -121.28125 C 0.257812 -123.113281 0 -125.269531 0 -127.75 C 0.257812 -129.0625 0.582031 -130.007812 0.96875 -130.59375 C 1.363281 -131.175781 1.757812 -131.664062 2.15625 -132.0625 L 2.9375 -135.59375 L 5.875 -135.59375 C 6.925781 -135.457031 8.003906 -135.390625 9.109375 -135.390625 C 10.222656 -135.390625 11.300781 -135.390625 12.34375 -135.390625 C 17.3125 -135.390625 22.40625 -135.582031 27.625 -135.96875 C 32.851562 -136.363281 38.207031 -136.828125 43.6875 -137.359375 C 49.695312 -138.140625 56.164062 -138.722656 63.09375 -139.109375 C 63.75 -140.546875 64.171875 -141.460938 64.359375 -141.859375 C 64.554688 -142.253906 64.785156 -142.710938 65.046875 -143.234375 L 67.203125 -144.40625 C 70.210938 -144.539062 72.300781 -144.179688 73.46875 -143.328125 C 74.644531 -142.484375 75.5625 -141.664062 76.21875 -140.875 C 79.613281 -141.132812 83.070312 -141.492188 86.59375 -141.953125 C 90.125 -142.410156 93.785156 -142.898438 97.578125 -143.421875 C 102.804688 -144.078125 108.097656 -144.726562 113.453125 -145.375 C 118.804688 -146.03125 124.03125 -146.359375 129.125 -146.359375 C 131.34375 -146.359375 133.429688 -146.289062 135.390625 -146.15625 C 137.347656 -146.03125 139.242188 -145.835938 141.078125 -145.578125 L 143.421875 -143.8125 C 143.941406 -142.90625 144.59375 -142.054688 145.375 -141.265625 C 146.164062 -140.484375 147.082031 -139.703125 148.125 -138.921875 C 150.082031 -137.347656 152.007812 -135.382812 153.90625 -133.03125 C 155.800781 -130.6875 156.488281 -127.226562 155.96875 -122.65625 L 154.984375 -120.703125 C 154.460938 -120.179688 153.8125 -119.65625 153.03125 -119.125 L 151.0625 -116.578125 L 148.90625 -116.578125 C 147.601562 -116.578125 146.625 -116.476562 145.96875 -116.28125 C 145.320312 -116.09375 144.539062 -115.800781 143.625 -115.40625 C 143.101562 -115.144531 142.515625 -114.914062 141.859375 -114.71875 C 141.203125 -114.519531 140.484375 -114.289062 139.703125 -114.03125 C 138.265625 -114.164062 137.15625 -114.234375 136.375 -114.234375 C 135.59375 -114.234375 134.675781 -114.234375 133.625 -114.234375 C 129.707031 -114.234375 125.460938 -113.972656 120.890625 -113.453125 C 116.316406 -112.929688 111.875 -112.34375 107.5625 -111.6875 C 104.4375 -111.289062 101.4375 -110.929688 98.5625 -110.609375 C 95.6875 -110.285156 93.070312 -109.988281 90.71875 -109.71875 C 89.414062 -106.320312 88.238281 -103.316406 87.1875 -100.703125 C 86.144531 -98.097656 85.035156 -95.488281 83.859375 -92.875 C 82.679688 -90.257812 81.570312 -87.613281 80.53125 -84.9375 C 79.488281 -82.257812 78.507812 -79.289062 77.59375 -76.03125 C 76.019531 -73.675781 74.710938 -71.421875 73.671875 -69.265625 C 72.628906 -67.109375 71.78125 -64.660156 71.125 -61.921875 C 69.164062 -59.691406 67.757812 -57.269531 66.90625 -54.65625 C 66.0625 -52.050781 65.3125 -49.832031 64.65625 -48 L 63.875 -45.0625 C 62.957031 -44.144531 62.398438 -43.425781 62.203125 -42.90625 C 62.015625 -42.382812 61.65625 -41.796875 61.125 -41.140625 C 60.738281 -39.441406 60.21875 -37.8125 59.5625 -36.25 C 59.300781 -35.59375 59.039062 -34.90625 58.78125 -34.1875 C 58.519531 -33.46875 58.453125 -32.914062 58.578125 -32.53125 C 58.316406 -31.09375 57.925781 -29.976562 57.40625 -29.1875 C 57.40625 -28.40625 57.335938 -27.625 57.203125 -26.84375 C 57.078125 -26.0625 56.953125 -25.28125 56.828125 -24.5 C 56.566406 -23.582031 56.367188 -22.765625 56.234375 -22.046875 C 56.097656 -21.328125 56.164062 -20.640625 56.4375 -19.984375 C 56.820312 -19.460938 57.207031 -18.941406 57.59375 -18.421875 C 57.988281 -17.898438 58.316406 -17.242188 58.578125 -16.453125 C 58.847656 -16.191406 59.175781 -15.992188 59.5625 -15.859375 C 59.957031 -15.734375 60.285156 -15.539062 60.546875 -15.28125 C 61.585938 -14.363281 62.566406 -13.84375 63.484375 -13.71875 L 65.4375 -11.359375 C 66.226562 -6.660156 65.507812 -3.003906 63.28125 -0.390625 C 60.9375 2.609375 57.019531 4.109375 51.53125 4.109375 L 48.78125 3.921875 C 47.875 3.003906 47.351562 2.414062 47.21875 2.15625 C 46.039062 1.632812 45.0625 1.207031 44.28125 0.875 C 43.5 0.550781 42.78125 -0.0664062 42.125 -0.984375 C 41.863281 -1.242188 41.535156 -1.40625 41.140625 -1.46875 C 40.753906 -1.53125 40.429688 -1.691406 40.171875 -1.953125 C 38.859375 -2.347656 37.8125 -2.804688 37.03125 -3.328125 L 34.875 -4.5 C 35.007812 -5.8125 35.078125 -6.726562 35.078125 -7.25 C 34.023438 -8.6875 33.203125 -10.253906 32.609375 -11.953125 C 32.023438 -13.648438 31.539062 -15.414062 31.15625 -17.25 C 30.757812 -18.675781 30.398438 -19.976562 30.078125 -21.15625 C 29.753906 -22.332031 29.265625 -23.378906 28.609375 -24.296875 C 28.347656 -33.441406 29.195312 -41.113281 31.15625 -47.3125 C 33.113281 -53.519531 35.269531 -59.5625 37.625 -65.4375 C 38.925781 -68.570312 40.164062 -71.769531 41.34375 -75.03125 C 42.519531 -78.300781 43.566406 -81.632812 44.484375 -85.03125 L 46.640625 -87.1875 C 47.546875 -87.976562 48.128906 -88.4375 48.390625 -88.5625 C 48.390625 -90.257812 48.71875 -91.925781 49.375 -93.5625 C 50.03125 -95.195312 50.75 -96.863281 51.53125 -98.5625 C 52.050781 -99.601562 52.539062 -100.644531 53 -101.6875 C 53.457031 -102.738281 53.753906 -103.65625 53.890625 -104.4375 C 52.972656 -104.4375 52.15625 -104.398438 51.4375 -104.328125 C 50.71875 -104.265625 49.96875 -104.171875 49.1875 -104.046875 C 47.488281 -103.648438 45.851562 -103.453125 44.28125 -103.453125 C 43.101562 -103.453125 42.253906 -103.519531 41.734375 -103.65625 C 40.691406 -103.132812 39.710938 -102.835938 38.796875 -102.765625 C 37.878906 -102.703125 36.960938 -102.671875 36.046875 -102.671875 L 31.34375 -102.671875 C 29.78125 -102.671875 28.539062 -102.472656 27.625 -102.078125 C 25.800781 -102.078125 24.625 -102.078125 24.09375 -102.078125 C 23.570312 -102.078125 22.988281 -102.078125 22.34375 -102.078125 L 17.640625 -102.078125 C 16.585938 -102.078125 15.40625 -102.175781 14.09375 -102.375 C 12.789062 -102.570312 11.425781 -103.0625 10 -103.84375 L 8.625 -105.421875 C 7.84375 -106.847656 7.125 -107.628906 6.46875 -107.765625 L 4.3125 -108.359375 Z M 4.3125 -110.515625 "/></g></g><g transform="translate(1685.343273, 760.452341)"><g><path d="M 3.328125 2.34375 C 1.503906 1.175781 0.0351562 -0.320312 -1.078125 -2.15625 C -2.191406 -3.988281 -3.109375 -5.945312 -3.828125 -8.03125 C -4.546875 -10.125 -5.128906 -12.3125 -5.578125 -14.59375 C -6.035156 -16.882812 -6.523438 -19.070312 -7.046875 -21.15625 C -7.046875 -22.988281 -6.65625 -24.328125 -5.875 -25.171875 C -5.09375 -26.023438 -4.242188 -26.84375 -3.328125 -27.625 C -0.191406 -27.757812 2.613281 -28.019531 5.09375 -28.40625 C 7.570312 -28.800781 9.988281 -29.191406 12.34375 -29.578125 C 14.695312 -29.972656 17.046875 -30.332031 19.390625 -30.65625 C 21.742188 -30.988281 24.296875 -31.15625 27.046875 -31.15625 C 29.003906 -35.207031 30.832031 -39.09375 32.53125 -42.8125 C 34.226562 -46.53125 35.859375 -50.085938 37.421875 -53.484375 C 38.203125 -56.753906 39.210938 -59.789062 40.453125 -62.59375 C 41.703125 -65.40625 42.910156 -68.082031 44.078125 -70.625 C 45.253906 -73.175781 46.300781 -75.722656 47.21875 -78.265625 C 48.132812 -80.816406 48.722656 -83.53125 48.984375 -86.40625 C 50.546875 -90.976562 51.945312 -95.191406 53.1875 -99.046875 C 54.4375 -102.898438 55.382812 -107.503906 56.03125 -112.859375 C 51.070312 -112.078125 47.085938 -111.328125 44.078125 -110.609375 C 41.078125 -109.890625 38.925781 -109.203125 37.625 -108.546875 C 35.007812 -108.679688 32.945312 -109.203125 31.4375 -110.109375 C 29.9375 -111.023438 28.726562 -112.132812 27.8125 -113.4375 C 26.90625 -114.75 26.125 -116.253906 25.46875 -117.953125 C 24.820312 -119.648438 24.039062 -121.414062 23.125 -123.25 C 23.644531 -124.425781 23.773438 -126.15625 23.515625 -128.4375 C 23.253906 -130.71875 22.46875 -132.382812 21.15625 -133.4375 C 22.207031 -133.695312 22.992188 -134.578125 23.515625 -136.078125 C 24.035156 -137.578125 24.097656 -138.722656 23.703125 -139.515625 C 25.929688 -140.160156 28.285156 -140.582031 30.765625 -140.78125 C 33.242188 -140.976562 35.691406 -141.171875 38.109375 -141.359375 C 40.523438 -141.554688 42.84375 -141.816406 45.0625 -142.140625 C 47.28125 -142.472656 49.175781 -143.160156 50.75 -144.203125 C 57.539062 -144.472656 64.625 -144.738281 72 -145 C 79.382812 -145.257812 86.210938 -145.582031 92.484375 -145.96875 C 94.835938 -145.1875 97.546875 -144.796875 100.609375 -144.796875 C 103.679688 -144.796875 106.75 -144.597656 109.8125 -144.203125 C 112.882812 -143.816406 115.628906 -142.96875 118.046875 -141.65625 C 120.460938 -140.351562 122.128906 -138.070312 123.046875 -134.8125 C 125.003906 -134.539062 126.472656 -134.015625 127.453125 -133.234375 C 128.429688 -132.453125 129.050781 -131.503906 129.3125 -130.390625 C 129.582031 -129.285156 129.679688 -128.046875 129.609375 -126.671875 C 129.546875 -125.296875 129.515625 -123.957031 129.515625 -122.65625 C 127.421875 -121.09375 124.773438 -119.816406 121.578125 -118.828125 C 118.378906 -117.847656 114.882812 -117.066406 111.09375 -116.484375 C 107.3125 -115.898438 103.363281 -115.507812 99.25 -115.3125 C 95.132812 -115.113281 91.113281 -114.945312 87.1875 -114.8125 C 86.539062 -110.507812 85.398438 -105.453125 83.765625 -99.640625 C 82.128906 -93.828125 80.460938 -88.144531 78.765625 -82.59375 C 77.066406 -77.039062 75.597656 -72.070312 74.359375 -67.6875 C 73.117188 -63.3125 72.5625 -60.472656 72.6875 -59.171875 C 71.382812 -56.171875 70.304688 -53.625 69.453125 -51.53125 C 68.609375 -49.4375 67.828125 -47.472656 67.109375 -45.640625 C 66.390625 -43.816406 65.671875 -42.023438 64.953125 -40.265625 C 64.234375 -38.503906 63.351562 -36.515625 62.3125 -34.296875 L 75.625 -34.296875 C 75.894531 -32.859375 76.484375 -31.875 77.390625 -31.34375 C 78.304688 -30.820312 79.285156 -30.363281 80.328125 -29.96875 C 81.378906 -29.582031 82.328125 -29.09375 83.171875 -28.5 C 84.023438 -27.914062 84.453125 -26.972656 84.453125 -25.671875 C 86.929688 -25.015625 88.492188 -24.03125 89.140625 -22.71875 C 89.796875 -21.414062 89.960938 -20.015625 89.640625 -18.515625 C 89.316406 -17.015625 88.664062 -15.476562 87.6875 -13.90625 C 86.707031 -12.34375 85.757812 -10.972656 84.84375 -9.796875 C 83.664062 -10.054688 82.550781 -9.757812 81.5 -8.90625 C 80.457031 -8.0625 79.484375 -7.117188 78.578125 -6.078125 C 74.785156 -6.597656 71.0625 -6.660156 67.40625 -6.265625 C 63.75 -5.878906 60.351562 -5.554688 57.21875 -5.296875 C 56.5625 -5.160156 56.296875 -4.796875 56.421875 -4.203125 C 56.554688 -3.617188 56.425781 -3.195312 56.03125 -2.9375 C 51.988281 -4.25 47.84375 -4.769531 43.59375 -4.5 C 39.351562 -4.238281 35.039062 -3.617188 30.65625 -2.640625 C 26.28125 -1.660156 21.804688 -0.617188 17.234375 0.484375 C 12.671875 1.597656 8.035156 2.21875 3.328125 2.34375 Z M 3.328125 2.34375 "/></g></g><g transform="translate(1788.80201, 760.452341)"><g><path d="M 47.21875 0.78125 C 41.46875 1.5625 36.242188 1.300781 31.546875 0 C 26.847656 -1.300781 22.632812 -3.320312 18.90625 -6.0625 C 15.1875 -8.8125 11.988281 -12.078125 9.3125 -15.859375 C 6.632812 -19.648438 4.445312 -23.703125 2.75 -28.015625 C 1.570312 -36.898438 1.894531 -44.96875 3.71875 -52.21875 C 5.550781 -59.46875 8.226562 -66.160156 11.75 -72.296875 C 15.28125 -78.441406 19.296875 -84.191406 23.796875 -89.546875 C 28.304688 -94.898438 32.65625 -100.054688 36.84375 -105.015625 C 37.75 -104.628906 38.492188 -104.628906 39.078125 -105.015625 C 39.671875 -105.410156 40.195312 -105.929688 40.65625 -106.578125 C 41.113281 -107.234375 41.632812 -107.890625 42.21875 -108.546875 C 42.8125 -109.203125 43.5 -109.660156 44.28125 -109.921875 C 44.800781 -111.097656 45.484375 -112.078125 46.328125 -112.859375 C 47.179688 -113.640625 48.097656 -114.390625 49.078125 -115.109375 C 50.054688 -115.828125 50.96875 -116.578125 51.8125 -117.359375 C 52.664062 -118.148438 53.421875 -119.132812 54.078125 -120.3125 C 55.378906 -120.570312 56.519531 -121.023438 57.5 -121.671875 C 58.488281 -122.328125 59.40625 -123.046875 60.25 -123.828125 C 61.101562 -124.617188 61.984375 -125.335938 62.890625 -125.984375 C 63.804688 -126.640625 64.921875 -127.164062 66.234375 -127.5625 L 66.234375 -130.109375 C 69.097656 -131.410156 71.179688 -132.84375 72.484375 -134.40625 C 73.796875 -135.976562 75.367188 -138.003906 77.203125 -140.484375 C 78.640625 -140.617188 79.78125 -140.6875 80.625 -140.6875 C 81.476562 -140.6875 82.816406 -140.816406 84.640625 -141.078125 C 85.816406 -143.296875 86.925781 -144.925781 87.96875 -145.96875 C 89.019531 -147.019531 90.523438 -148.195312 92.484375 -149.5 C 94.441406 -148.457031 96.53125 -147.835938 98.75 -147.640625 C 100.96875 -147.441406 102.992188 -146.429688 104.828125 -144.609375 C 104.953125 -143.035156 105.40625 -141.820312 106.1875 -140.96875 C 106.976562 -140.125 107.832031 -139.34375 108.75 -138.625 C 109.664062 -137.90625 110.578125 -137.15625 111.484375 -136.375 C 112.398438 -135.59375 112.988281 -134.484375 113.25 -133.046875 C 113.90625 -133.046875 114.328125 -133.175781 114.515625 -133.4375 C 114.710938 -133.695312 115.140625 -133.757812 115.796875 -133.625 C 116.054688 -132.582031 116.316406 -131.734375 116.578125 -131.078125 C 116.835938 -130.429688 117.128906 -129.84375 117.453125 -129.3125 C 117.785156 -128.789062 118.113281 -128.203125 118.4375 -127.546875 C 118.769531 -126.898438 119.066406 -126.117188 119.328125 -125.203125 C 118.671875 -123.640625 118.082031 -121.972656 117.5625 -120.203125 C 117.039062 -118.441406 115.992188 -117.234375 114.421875 -116.578125 C 114.421875 -115.535156 114.8125 -114.976562 115.59375 -114.90625 C 116.382812 -114.84375 116.84375 -114.359375 116.96875 -113.453125 C 117.101562 -112.273438 116.910156 -111.296875 116.390625 -110.515625 C 120.046875 -104.367188 123.375 -97.929688 126.375 -91.203125 C 129.382812 -84.484375 132.78125 -78.050781 136.5625 -71.90625 C 136.300781 -70.082031 136.398438 -68.285156 136.859375 -66.515625 C 137.316406 -64.753906 137.90625 -63.023438 138.625 -61.328125 C 139.34375 -59.628906 140.023438 -57.929688 140.671875 -56.234375 C 141.328125 -54.535156 141.789062 -52.835938 142.0625 -51.140625 C 142.320312 -48.921875 142.316406 -46.535156 142.046875 -43.984375 C 141.785156 -41.441406 141.265625 -38.992188 140.484375 -36.640625 C 139.703125 -34.285156 138.65625 -32.097656 137.34375 -30.078125 C 136.039062 -28.054688 134.539062 -26.519531 132.84375 -25.46875 C 130.757812 -22.851562 128.148438 -20.726562 125.015625 -19.09375 C 121.878906 -17.46875 119.003906 -15.546875 116.390625 -13.328125 C 114.554688 -12.273438 112.59375 -11.519531 110.5 -11.0625 C 108.414062 -10.613281 106.265625 -10.125 104.046875 -9.59375 C 102.347656 -8.550781 100.320312 -7.539062 97.96875 -6.5625 C 95.613281 -5.582031 93.195312 -4.703125 90.71875 -3.921875 C 88.238281 -3.140625 85.753906 -2.519531 83.265625 -2.0625 C 80.785156 -1.601562 78.566406 -1.503906 76.609375 -1.765625 C 71.910156 -0.0664062 67.335938 1.109375 62.890625 1.765625 C 58.453125 2.421875 53.226562 2.09375 47.21875 0.78125 Z M 49.765625 -70.53125 C 48.460938 -67.53125 46.925781 -64.820312 45.15625 -62.40625 C 43.394531 -59.988281 41.664062 -57.535156 39.96875 -55.046875 C 38.269531 -52.566406 36.800781 -49.921875 35.5625 -47.109375 C 34.320312 -44.304688 33.632812 -41.015625 33.5 -37.234375 C 36.113281 -35.003906 39.21875 -33.660156 42.8125 -33.203125 C 46.40625 -32.753906 50.09375 -32.691406 53.875 -33.015625 C 57.664062 -33.335938 61.453125 -33.828125 65.234375 -34.484375 C 69.023438 -35.140625 72.425781 -35.46875 75.4375 -35.46875 C 75.4375 -36.644531 75.957031 -37.234375 77 -37.234375 C 82.488281 -37.753906 87.582031 -39.285156 92.28125 -41.828125 C 96.988281 -44.378906 101.890625 -46.960938 106.984375 -49.578125 C 107.640625 -51.140625 108.488281 -52.507812 109.53125 -53.6875 C 110.570312 -54.863281 111.160156 -56.5625 111.296875 -58.78125 C 110.640625 -59.957031 110.210938 -60.9375 110.015625 -61.71875 C 109.816406 -62.5 109.71875 -63.675781 109.71875 -65.25 C 106.320312 -69.945312 103.382812 -75.070312 100.90625 -80.625 C 98.425781 -86.175781 95.550781 -91.4375 92.28125 -96.40625 C 92.019531 -95.75 91.5 -95.09375 90.71875 -94.4375 C 89.9375 -93.789062 89.085938 -93.921875 88.171875 -94.828125 C 87.773438 -93.523438 87.1875 -92.644531 86.40625 -92.1875 C 85.625 -91.726562 84.742188 -91.5 83.765625 -91.5 C 82.785156 -91.5 81.804688 -91.691406 80.828125 -92.078125 C 79.847656 -92.472656 78.960938 -93 78.171875 -93.65625 C 73.609375 -90 69.070312 -86.472656 64.5625 -83.078125 C 60.050781 -79.679688 55.96875 -75.695312 52.3125 -71.125 C 51.65625 -70.726562 51.257812 -70.59375 51.125 -70.71875 C 51 -70.851562 50.546875 -70.789062 49.765625 -70.53125 Z M 49.765625 -70.53125 "/></g></g><g transform="translate(1938.11178, 760.452341)"><g><path d="M 35.46875 -18.421875 C 34.15625 -17.367188 33.367188 -16.023438 33.109375 -14.390625 C 32.847656 -12.765625 32.519531 -11.164062 32.125 -9.59375 C 31.738281 -8.03125 31.054688 -6.691406 30.078125 -5.578125 C 29.097656 -4.472656 27.367188 -3.984375 24.890625 -4.109375 C 24.359375 -3.460938 24.253906 -3.070312 24.578125 -2.9375 C 24.910156 -2.8125 25.207031 -2.222656 25.46875 -1.171875 C 23.644531 -1.429688 22.335938 -1.300781 21.546875 -0.78125 C 20.765625 -0.257812 19.785156 0.128906 18.609375 0.390625 C 15.609375 -0.523438 13.09375 -2.191406 11.0625 -4.609375 C 9.039062 -7.023438 7.28125 -9.664062 5.78125 -12.53125 C 4.28125 -15.40625 2.972656 -18.34375 1.859375 -21.34375 C 0.753906 -24.351562 -0.382812 -26.96875 -1.5625 -29.1875 C -1.5625 -29.71875 -1.332031 -29.945312 -0.875 -29.875 C -0.425781 -29.8125 -0.00390625 -29.78125 0.390625 -29.78125 C -0.265625 -31.082031 -0.753906 -32.550781 -1.078125 -34.1875 C -1.398438 -35.820312 -2.019531 -37.160156 -2.9375 -38.203125 C 0.851562 -46.304688 4.898438 -54.765625 9.203125 -63.578125 C 13.515625 -72.398438 17.859375 -81.347656 22.234375 -90.421875 C 26.609375 -99.503906 30.984375 -108.648438 35.359375 -117.859375 C 39.742188 -127.066406 43.957031 -136.113281 48 -145 C 51.65625 -143.6875 55.210938 -142.148438 58.671875 -140.390625 C 62.140625 -138.628906 65.3125 -136.570312 68.1875 -134.21875 C 71.0625 -131.863281 73.507812 -129.148438 75.53125 -126.078125 C 77.5625 -123.015625 78.898438 -119.523438 79.546875 -115.609375 C 79.285156 -114.816406 78.957031 -114.550781 78.5625 -114.8125 C 78.175781 -115.082031 77.851562 -114.953125 77.59375 -114.421875 C 78.25 -113.640625 78.609375 -113.082031 78.671875 -112.75 C 78.734375 -112.425781 78.695312 -112.101562 78.5625 -111.78125 C 78.4375 -111.457031 78.375 -111.03125 78.375 -110.5 C 78.375 -109.976562 78.703125 -109.265625 79.359375 -108.359375 C 78.703125 -108.484375 78.242188 -108.378906 77.984375 -108.046875 C 77.722656 -107.722656 77.265625 -107.695312 76.609375 -107.96875 C 77.265625 -106.132812 77.460938 -104.691406 77.203125 -103.640625 C 76.941406 -102.597656 76.546875 -101.648438 76.015625 -100.796875 C 75.492188 -99.953125 75.070312 -99.039062 74.75 -98.0625 C 74.425781 -97.082031 74.523438 -95.742188 75.046875 -94.046875 C 74.523438 -94.046875 74.164062 -93.945312 73.96875 -93.75 C 73.769531 -93.5625 73.601562 -93.332031 73.46875 -93.0625 C 73.34375 -92.800781 73.179688 -92.570312 72.984375 -92.375 C 72.785156 -92.1875 72.425781 -92.15625 71.90625 -92.28125 C 72.300781 -88.882812 72.429688 -85.457031 72.296875 -82 C 72.171875 -78.539062 72.039062 -75.015625 71.90625 -71.421875 C 71.78125 -67.828125 71.78125 -64.132812 71.90625 -60.34375 C 72.039062 -56.5625 72.566406 -52.644531 73.484375 -48.59375 C 79.097656 -51.851562 83.632812 -56.097656 87.09375 -61.328125 C 90.550781 -66.554688 93.289062 -72.367188 95.3125 -78.765625 C 97.34375 -85.171875 98.910156 -92.03125 100.015625 -99.34375 C 101.128906 -106.65625 102.273438 -114.097656 103.453125 -121.671875 C 104.890625 -123.109375 106.03125 -124.875 106.875 -126.96875 C 107.726562 -129.0625 108.445312 -131.21875 109.03125 -133.4375 C 109.625 -135.65625 110.210938 -137.90625 110.796875 -140.1875 C 111.390625 -142.476562 112.207031 -144.535156 113.25 -146.359375 C 115.601562 -146.097656 117.59375 -145.410156 119.21875 -144.296875 C 120.851562 -143.191406 122.390625 -141.953125 123.828125 -140.578125 C 125.265625 -139.210938 126.765625 -137.941406 128.328125 -136.765625 C 129.898438 -135.585938 131.863281 -134.800781 134.21875 -134.40625 C 136.039062 -131.800781 137.734375 -129.289062 139.296875 -126.875 C 140.867188 -124.457031 141.921875 -121.742188 142.453125 -118.734375 C 141.660156 -117.429688 141.066406 -115.992188 140.671875 -114.421875 C 140.285156 -112.859375 139.863281 -111.289062 139.40625 -109.71875 C 138.945312 -108.15625 138.328125 -106.71875 137.546875 -105.40625 C 136.765625 -104.101562 135.65625 -102.992188 134.21875 -102.078125 C 133.820312 -98.160156 133.234375 -94.503906 132.453125 -91.109375 C 131.671875 -87.710938 130.953125 -84.378906 130.296875 -81.109375 C 129.640625 -77.847656 129.050781 -74.453125 128.53125 -70.921875 C 128.007812 -67.398438 127.816406 -63.550781 127.953125 -59.375 C 126.773438 -55.582031 125.46875 -51.691406 124.03125 -47.703125 C 122.59375 -43.722656 121.546875 -40.035156 120.890625 -36.640625 C 118.410156 -34.679688 116.453125 -32.265625 115.015625 -29.390625 C 113.578125 -26.515625 112.078125 -23.640625 110.515625 -20.765625 C 109.859375 -20.242188 109.460938 -20.144531 109.328125 -20.46875 C 109.203125 -20.800781 108.613281 -21.03125 107.5625 -21.15625 C 107.695312 -19.976562 107.46875 -19.226562 106.875 -18.90625 C 106.289062 -18.582031 106.328125 -17.632812 106.984375 -16.0625 C 104.765625 -15.019531 102.804688 -13.648438 101.109375 -11.953125 C 99.410156 -10.253906 97.546875 -8.6875 95.515625 -7.25 C 93.492188 -5.8125 91.144531 -4.863281 88.46875 -4.40625 C 85.789062 -3.945312 82.296875 -4.503906 77.984375 -6.078125 C 71.578125 -10.773438 65.828125 -16.191406 60.734375 -22.328125 C 55.640625 -28.472656 51.59375 -35.726562 48.59375 -44.09375 C 47.289062 -43.695312 46.3125 -42.84375 45.65625 -41.53125 C 45 -40.226562 44.410156 -38.859375 43.890625 -37.421875 C 43.367188 -35.984375 42.84375 -34.675781 42.3125 -33.5 C 41.789062 -32.320312 41.007812 -31.734375 39.96875 -31.734375 C 39.707031 -30.566406 39.21875 -29.492188 38.5 -28.515625 C 37.78125 -27.535156 37.09375 -26.550781 36.4375 -25.5625 C 35.789062 -24.582031 35.300781 -23.503906 34.96875 -22.328125 C 34.644531 -21.160156 34.8125 -19.859375 35.46875 -18.421875 Z M 35.46875 -18.421875 "/></g></g></g><g clip-path="url(#9815ad6c51)"><path fill="#ffffff" d="M 86.398438 103.90625 L 2073.246094 103.90625 L 2073.246094 542.382812 L 86.398438 542.382812 Z M 86.398438 103.90625 " fill-opacity="1" fill-rule="nonzero"/></g><path stroke-linecap="butt" transform="matrix(0.74998, -0.00541361, 0.00541361, 0.74998, 150.805637, 449.507805)" fill="none" stroke-linejoin="miter" d="M 0.00143244 15.500425 L 2147.364701 15.500403 " stroke="#000000" stroke-width="31" stroke-opacity="1" stroke-miterlimit="4"/><g fill="#000000" fill-opacity="1"><g transform="translate(1824.439596, 454.914448)"><g><path d="M 3.578125 -124.078125 C 4.128906 -126.828125 4.492188 -129.070312 4.671875 -130.8125 C 4.859375 -132.550781 4.21875 -134.429688 2.75 -136.453125 C 3.476562 -139.390625 4.070312 -141.679688 4.53125 -143.328125 C 5 -144.972656 5.046875 -147.265625 4.671875 -150.203125 C 6.328125 -154.972656 8.847656 -159.007812 12.234375 -162.3125 C 15.628906 -165.613281 19.34375 -168.410156 23.375 -170.703125 C 27.414062 -172.992188 31.632812 -174.914062 36.03125 -176.46875 C 40.4375 -178.03125 44.566406 -179.363281 48.421875 -180.46875 C 48.421875 -181.195312 48.050781 -181.5625 47.3125 -181.5625 C 46.582031 -181.5625 46.398438 -182.019531 46.765625 -182.9375 C 56.671875 -184.769531 66.617188 -187.425781 76.609375 -190.90625 C 86.609375 -194.394531 96.832031 -197.515625 107.28125 -200.265625 C 117.738281 -203.023438 128.46875 -204.722656 139.46875 -205.359375 C 150.476562 -206.003906 162.035156 -204.582031 174.140625 -201.09375 C 174.867188 -198.894531 175.875 -196.785156 177.15625 -194.765625 C 178.445312 -192.753906 179.78125 -190.785156 181.15625 -188.859375 C 182.53125 -186.929688 183.765625 -185.050781 184.859375 -183.21875 C 185.960938 -181.382812 186.609375 -179.457031 186.796875 -177.4375 C 188.992188 -175.414062 190.78125 -173.257812 192.15625 -170.96875 C 193.53125 -168.675781 193.757812 -165.609375 192.84375 -161.765625 C 190.820312 -160.296875 188.710938 -158.828125 186.515625 -157.359375 C 184.316406 -155.890625 182.023438 -154.515625 179.640625 -153.234375 C 171.390625 -155.242188 163.132812 -155.972656 154.875 -155.421875 C 146.625 -154.878906 139.195312 -154.238281 132.59375 -153.5 C 130.582031 -155.707031 128.195312 -156.765625 125.4375 -156.671875 C 122.6875 -156.578125 119.796875 -156.117188 116.765625 -155.296875 C 113.742188 -154.472656 110.765625 -153.644531 107.828125 -152.8125 C 104.898438 -151.988281 102.15625 -151.757812 99.59375 -152.125 C 97.570312 -150.289062 94.910156 -149.050781 91.609375 -148.40625 C 88.304688 -147.769531 84.820312 -147.269531 81.15625 -146.90625 C 80.96875 -145.988281 81.148438 -145.34375 81.703125 -144.96875 C 82.253906 -144.601562 82.347656 -143.875 81.984375 -142.78125 C 83.265625 -141.125 85.003906 -139.972656 87.203125 -139.328125 C 89.410156 -138.691406 91.660156 -138.097656 93.953125 -137.546875 C 96.242188 -136.992188 98.304688 -136.210938 100.140625 -135.203125 C 101.972656 -134.203125 103.164062 -132.597656 103.71875 -130.390625 C 107.019531 -130.210938 109.859375 -129.34375 112.234375 -127.78125 C 114.617188 -126.226562 116.632812 -124.347656 118.28125 -122.140625 C 119.9375 -119.941406 121.128906 -117.601562 121.859375 -115.125 C 122.597656 -112.65625 122.875 -110.410156 122.6875 -108.390625 C 123.425781 -106.554688 124.207031 -105.820312 125.03125 -106.1875 C 125.851562 -106.550781 126.816406 -106.09375 127.921875 -104.8125 C 128.648438 -102.0625 130.34375 -99.171875 133 -96.140625 C 135.664062 -93.117188 137.734375 -89.863281 139.203125 -86.375 C 139.566406 -80.875 139.882812 -75.921875 140.15625 -71.515625 C 140.4375 -67.117188 139.660156 -62.8125 137.828125 -58.59375 C 134.710938 -50.519531 130.21875 -43.273438 124.34375 -36.859375 C 118.476562 -30.441406 111.832031 -24.800781 104.40625 -19.9375 C 96.976562 -15.082031 89.132812 -10.863281 80.875 -7.28125 C 72.625 -3.707031 64.460938 -0.726562 56.390625 1.65625 C 55.660156 1.46875 54.789062 1.460938 53.78125 1.640625 C 52.769531 1.828125 52.539062 1.28125 53.09375 0 C 51.445312 1.46875 49.566406 2.382812 47.453125 2.75 C 45.347656 3.113281 43.054688 3.25 40.578125 3.15625 C 38.097656 3.070312 35.617188 2.9375 33.140625 2.75 C 30.671875 2.5625 28.242188 2.65625 25.859375 3.03125 C 24.390625 1.5625 23.054688 0.09375 21.859375 -1.375 C 20.671875 -2.84375 19.710938 -4.585938 18.984375 -6.609375 C 18.066406 -6.785156 17.648438 -7.378906 17.734375 -8.390625 C 17.828125 -9.398438 17.414062 -9.90625 16.5 -9.90625 C 16.5 -10.632812 16.59375 -11.179688 16.78125 -11.546875 C 16.96875 -11.921875 17.148438 -12.289062 17.328125 -12.65625 C 18.066406 -13.207031 18.390625 -13.617188 18.296875 -13.890625 C 18.203125 -14.171875 17.925781 -14.445312 17.46875 -14.71875 C 17.007812 -14.988281 16.550781 -15.304688 16.09375 -15.671875 C 15.632812 -16.046875 15.5 -16.507812 15.6875 -17.0625 C 16.601562 -18.707031 16.921875 -20.675781 16.640625 -22.96875 C 16.367188 -25.257812 16.140625 -27.597656 15.953125 -29.984375 C 15.773438 -32.367188 15.957031 -34.613281 16.5 -36.71875 C 17.050781 -38.832031 18.613281 -40.625 21.1875 -42.09375 C 28.707031 -41.351562 35.8125 -41.71875 42.5 -43.1875 C 49.195312 -44.65625 55.523438 -46.671875 61.484375 -49.234375 C 67.441406 -51.804688 73.125 -54.601562 78.53125 -57.625 C 83.945312 -60.65625 89.222656 -63.457031 94.359375 -66.03125 C 94.910156 -67.863281 95.78125 -69.421875 96.96875 -70.703125 C 98.164062 -71.984375 99.40625 -73.21875 100.6875 -74.40625 C 101.96875 -75.601562 103.15625 -76.890625 104.25 -78.265625 C 105.351562 -79.640625 106.179688 -81.335938 106.734375 -83.359375 C 106.921875 -84.085938 106.921875 -84.632812 106.734375 -85 C 106.554688 -85.375 106.28125 -85.695312 105.90625 -85.96875 C 105.539062 -86.238281 105.175781 -86.554688 104.8125 -86.921875 C 104.445312 -87.296875 104.265625 -87.847656 104.265625 -88.578125 C 103.710938 -88.765625 103.207031 -88.945312 102.75 -89.125 C 102.289062 -89.3125 101.878906 -89.40625 101.515625 -89.40625 C 96.742188 -91.789062 91.695312 -93.804688 86.375 -95.453125 C 81.0625 -97.109375 76.570312 -98.945312 72.90625 -100.96875 C 70.695312 -99.5 68.492188 -99.128906 66.296875 -99.859375 C 64.097656 -100.597656 61.441406 -101.332031 58.328125 -102.0625 C 50.617188 -102.425781 43.328125 -103.15625 36.453125 -104.25 C 29.578125 -105.351562 22.925781 -107.285156 16.5 -110.046875 C 16.132812 -111.140625 15.675781 -112.097656 15.125 -112.921875 C 14.582031 -113.753906 13.300781 -113.984375 11.28125 -113.609375 C 10 -115.453125 8.671875 -117.148438 7.296875 -118.703125 C 5.921875 -120.265625 4.679688 -122.054688 3.578125 -124.078125 Z M 3.578125 -124.078125 "/></g></g></g><g fill="#000000" fill-opacity="1"><g transform="translate(1725.268506, 440.268462)"><g><path d="M 111.78125 -257.796875 C 111.78125 -256.867188 111.601562 -255.703125 111.25 -254.296875 C 110.90625 -252.898438 110.734375 -251.5625 110.734375 -250.28125 C 110.734375 -249 110.960938 -247.894531 111.421875 -246.96875 C 111.890625 -246.039062 112.707031 -245.578125 113.875 -245.578125 C 109.914062 -239.515625 105.898438 -233.28125 101.828125 -226.875 C 97.753906 -220.476562 93.96875 -213.957031 90.46875 -207.3125 C 86.976562 -200.675781 84.125 -194.097656 81.90625 -187.578125 C 79.695312 -181.054688 78.476562 -174.65625 78.25 -168.375 C 78.007812 -164.644531 76.082031 -162.546875 72.46875 -162.078125 C 68.863281 -161.617188 64.734375 -161.910156 60.078125 -162.953125 C 55.421875 -164.003906 50.765625 -165.398438 46.109375 -167.140625 C 41.453125 -168.890625 38.078125 -170.234375 35.984375 -171.171875 C 35.046875 -173.265625 34.34375 -175.707031 33.875 -178.5 C 33.414062 -181.289062 33.128906 -184.140625 33.015625 -187.046875 C 32.898438 -189.960938 32.78125 -192.875 32.65625 -195.78125 C 32.539062 -198.695312 32.367188 -201.203125 32.140625 -203.296875 C 34.003906 -205.859375 35.34375 -209.234375 36.15625 -213.421875 C 36.96875 -217.617188 37.957031 -221.46875 39.125 -224.96875 C 40.050781 -227.289062 40.570312 -228.742188 40.6875 -229.328125 C 40.8125 -229.910156 40.875 -230.257812 40.875 -230.375 C 40.875 -230.488281 40.929688 -230.835938 41.046875 -231.421875 C 41.160156 -232.003906 41.800781 -233.460938 42.96875 -235.796875 C 43.4375 -236.953125 43.492188 -237.9375 43.140625 -238.75 C 42.785156 -239.570312 42.84375 -240.332031 43.3125 -241.03125 C 43.550781 -241.5 44.078125 -241.960938 44.890625 -242.421875 C 45.703125 -242.890625 46.34375 -243.359375 46.8125 -243.828125 C 47.507812 -245.222656 47.796875 -246.269531 47.671875 -246.96875 C 47.554688 -247.664062 48.082031 -248.710938 49.25 -250.109375 C 50.1875 -251.273438 51.46875 -252.847656 53.09375 -254.828125 C 54.726562 -256.804688 55.546875 -258.726562 55.546875 -260.59375 C 58.804688 -262.6875 61.832031 -264.894531 64.625 -267.21875 C 67.414062 -269.550781 71.375 -271.300781 76.5 -272.46875 C 77.664062 -271.769531 79.816406 -270.601562 82.953125 -268.96875 C 86.097656 -267.34375 89.476562 -265.769531 93.09375 -264.25 C 96.707031 -262.738281 100.257812 -261.34375 103.75 -260.0625 C 107.238281 -258.78125 109.914062 -258.023438 111.78125 -257.796875 Z M 111.78125 -257.796875 "/></g></g></g></svg>