<?xml version="1.0" encoding="utf-8"?>
<!-- Generator: Adobe Illustrator 22.0.1, SVG Export Plug-In . SVG Version: 6.00 Build 0)  -->
<!DOCTYPE svg PUBLIC "-//W3C//DTD SVG 1.1//EN" "http://www.w3.org/Graphics/SVG/1.1/DTD/svg11.dtd">
<svg version="1.1" id="Layer_1" xmlns="http://www.w3.org/2000/svg" xmlns:xlink="http://www.w3.org/1999/xlink" x="0px" y="0px"
	 width="268px" height="333.4px" viewBox="0 0 268 333.4" style="enable-background:new 0 0 268 333.4;" xml:space="preserve">
<g>
	<g>
		<path d="M207,178c5-8.5,7.5-16.7,7.8-25c0.4-15.5-7.3-31-23.6-47.4L96.5,11.1c-9.4-9.4-24.5-9.4-33.9,0L32.8,40.9c0,0,0,0,0,0
			c-4.5,4.5-7,10.6-7,17c0,6.4,2.5,12.5,7,17l57.5,57.4l0.2,0.2c2.4,2.5,4,5.5,4.6,8.7c1.1,5.5-0.5,11.4-4.7,15.6
			c-4.2,4.2-10.2,5.8-15.6,4.7c-2.1-0.4-4.1-1.2-6-2.5c-0.1,0-0.1-0.1-0.2-0.2c-4.5-3-10-4.5-15.5-3.9c-7.1,0.7-13.5,4.5-17.6,10.4
			l-24.1,35.3c-6.5,9.5-5.3,22.3,2.8,30.4L40,256.8c16.4,16.4,31.9,24.1,47.4,23.6c15.2-0.4,30.3-8.7,47.6-25.9c0,0,0,0,0,0
			l53.7-53.7C196.7,192.8,202.7,185.3,207,178 M190.8,152.4c-0.2,8.5-6.6,19-19,31.4L118,237.5c-12.4,12.4-22.9,18.7-31.4,18.9
			c-8.6,0.3-18.5-5.3-29.7-16.6L31.2,214l24.1-35.3l18,18l57.8-57.7L49.7,57.9L79.6,28l94.6,94.6C185.5,133.9,191,143.8,190.8,152.4
			z"/>
		<polygon points="78.6,202 92.8,216.3 150.5,158.6 136.2,144.4 		"/>
	</g>
	<g>
		<path d="M120.8,312.4l-7.6,7.6l-5.6-5.6l-4.1,6l4.1,4.1c1.8,1.8,3.4,2.7,4.8,2.6c1.4-0.1,3-1,4.8-2.8l7.8-7.8
			c1.9-1.9,2.8-3.4,2.8-4.8c0.1-1.4-0.8-3-2.6-4.8l-14.3-14.3l-5,5L120.8,312.4z"/>
		<path d="M129.2,274.5l-4.6,4.6l8.2,29.7l5.2-5.2l-1.9-6.1l11.1-11.1l6.1,1.8l0,0l5.7-5.7L129.2,274.5L129.2,274.5z M141,284.6
			l-6.6,6.6l-2.8-9.5L141,284.6z"/>
		<polygon points="165.1,238.8 165.1,238.6 157.6,246.1 155.2,262.8 148,255.7 142.9,260.7 161.9,279.7 167,274.7 159.4,267.1 
			177.3,264.3 177.4,264.3 185.6,256.1 161.4,260.2 		"/>
		<path d="M197.5,230.4c2-2,3.8-5.2,0.6-8.4l-4.3-4.3c-3.2-3.2-6.4-1.5-8.4,0.6l-16,16l19,19l5-5l-6.9-6.9l3.5-3.5l14.2-0.5l0,0
			l7.3-7.3l-15.3,1.5L197.5,230.4z M192.7,227c0,0.2-0.2,0.6-1,1.3l-9.1,9.1l-4.3-4.3l9.1-9.1c0.8-0.8,1.2-1,1.3-1
			c0.4-0.1,0.8,0.1,1.2,0.6l2.2,2.2C192.6,226.3,192.8,226.7,192.7,227z"/>
		<path d="M213.7,190l-13.4,13.4c-1.9,1.9-2.8,3.4-2.8,4.8c-0.1,1.4,0.8,3,2.6,4.8l9.6,9.6c1.8,1.8,3.4,2.7,4.8,2.6
			c1.4-0.1,3-1,4.8-2.8l13.4-13.4c1.9-1.9,2.8-3.4,2.8-4.8c0.1-1.4-0.8-3-2.6-4.8l-9.6-9.6c-1.8-1.8-3.4-2.7-4.8-2.6
			C217.1,187.2,215.5,188.2,213.7,190z M217.6,194.2l10.7,10.7l-13.2,13.2l-10.7-10.7L217.6,194.2z"/>
		<path d="M244.5,161.1c-1.4,0.1-3,1-4.8,2.8l-13.4,13.4c-1.9,1.9-2.8,3.4-2.8,4.8c-0.1,1.4,0.8,3,2.6,4.8l9.6,9.6
			c1.8,1.8,3.4,2.7,4.8,2.6c1.4-0.1,3-1,4.8-2.8l13.4-13.4c1.9-1.9,2.8-3.4,2.8-4.8c0.1-1.4-0.8-3-2.6-4.8l-9.6-9.6
			C247.5,161.9,245.9,161.1,244.5,161.1z M243.6,168.1l10.7,10.7L241.2,192l-10.7-10.7L243.6,168.1z"/>
	</g>
</g>
</svg>
